<?xml version="1.0" encoding="UTF-8"?><svg xmlns="http://www.w3.org/2000/svg" xmlns:xlink="http://www.w3.org/1999/xlink" viewBox="0 0 200 200"><defs><style>.i{fill:url(#h);}.j{fill:#231815;}</style><linearGradient id="h" x1="143" y1="33.92" x2="39.27" y2="208.43" gradientTransform="matrix(1, 0, 0, 1, 0, 0)" gradientUnits="userSpaceOnUse"><stop offset="0" stop-color="#10ffa2"/><stop offset="1" stop-color="#c7ffe9"/></linearGradient></defs><g id="a"/><g id="b"/><g id="c"/><g id="d"/><g id="e"/><g id="f"/><g id="g"><g><path class="i" d="M175.46,146.97s-103.52,65.35-125.04-40.48c-.94-56,22.67-61.54,28-39.63,7.42,25.61,12.29,35,12.29,35,0,0,13.44-50.7,21.41-53.09,8.04,3.47,23.24,79.01,30.01,78.06,8.14-1.14,9.53-58.28,19.53-58.57,5.43,0,12.38,64.29,25.06,40.42,7.17-22.11,9.69-75-40.44-96.45C85.75-5.29,50.09,27.46,34.48,49.22c-17.1,24.09-38.96,95.8,23.94,138.53,10.58,3.96,27.61,8.05,34.67,7.42,39.39-4.76,64.3-18.64,82.36-48.21Z"/><g><path class="j" d="M93.1,195.8c-30.38,0-56.85-18.98-68.37-40.14C3.48,110.83,14.2,77.01,27.29,55.24,48.01,20.76,81.46,4.2,107.53,4.2c34.97,0,62.73,11.86,75.52,35.14,15.02,27.35,9.19,63.92,1.98,75.05-1.52,2.34-3.06,3.44-4.6,3.34l-.3-.02-.24-.17c-7.44-5.12-10.97-22.17-13.81-35.86-1.61-7.77-5.09-17.12-6.91-17.56-.09-.03-.34,.06-.72,.47-.07,15.98-7.97,62.51-15.79,64.42-1.68,.4-3.2-.72-4.56-3.34l-.09-.23c-16.33-61.7-21.42-75.84-25.89-76.66-1.51-.27-2.69,1.18-4.07,3.12l-.19,.27c-2,5.27-2.78,12.46-5.07,20.74-5.89,21.31-8.82,30.66-12.17,30.66h0c-1.9,0-2.59-2.57-2.86-3.54-.64-2.35-1.27-4.91-1.92-7.55-3.13-12.7-9.72-34.82-17.49-38.02-18.84,7.62-15.5,57.48-15.49,57.92l-2.24,.04c-.04-1.88-3.38-52.48,17.33-60.21l.38-.14,.38,.13c9.16,3.23,15.81,25.61,19.3,39.73,.65,2.62,1.27,5.16,1.91,7.5,.45,1.64,.84,1.92,.84,1.92,2.09-.87,6.78-17.83,9.88-29.05,2.43-8.79,3.14-15.72,5.19-21.08l.14-.26,.27-.38c1.3-1.82,3.24-4.56,6.29-4.02,4.8,.88,9.6,10.14,27.62,78.17,.89,1.68,1.61,2.18,1.99,2.09,5.12-1.25,14.08-41.56,14.08-62.67v-.4l.25-.31c1.04-1.27,2.12-1.78,3.24-1.51,3.05,.74,6.01,6.91,8.57,19.28,2.71,13.1,6.08,29.35,12.58,34.25,.51-.14,1.32-.79,2.3-2.3,6.96-10.75,12.54-46.17-2.06-72.76C168.7,17.86,142.64,6.43,108.88,6.43c-.43,0-.85,0-1.28,0-24.92,1.14-58.07,16.15-78.39,49.95-12.81,21.31-23.28,54.38-2.48,98.26,11.18,20.54,37.1,39.08,67,38.91,35.03-.22,66.25-17.29,81.74-46.6l.92,.49c-19.91,31.16-46.78,48.12-82.65,48.35-.21,0-.42,0-.63,0Z"/><path class="j" d="M91.05,195.13c-8.05-.02-15.95-1.34-23.47-4.23s-14.42-6.91-20.69-11.81-11.33-10.15-15.7-16.33c-5.08-7.18-8.3-15.57-10.93-23.91-4.8-15.22-6.51-31.39-3.94-47.2,1.99-12.25,6.47-23.98,12.74-34.67,8.08-13.79,18.97-25.97,32.05-35.19,11.17-7.88,24.02-13.7,37.55-15.95,6.92-1.15,13.9-1.1,20.89-.62,7.55,.52,15.11,1.63,22.37,3.82,12.98,3.91,25.17,11.26,33.62,21.98,9.66,12.24,13.76,28.22,14.4,43.57,.3,7.2-.15,14.46-1.42,21.56-.94,5.25-2.26,10.6-4.65,15.4-1.1,2.2-2.93,5.72-5.79,5.49l4.41,1.2c-3.08-2.15-5.01-5.45-6.53-8.81-2.01-4.47-3.36-9.22-4.55-13.96s-2.14-9.97-3.31-14.93c-1.08-4.61-2.44-9.44-4.71-13.62-.72-1.33-1.39-2.19-2.85-2.68-1-.33-2.81-1.11-3.86-.75-.82,.29-.65,1-.67,1.71-.07,2.88-.31,5.75-.6,8.61-.75,7.47-1.89,14.92-3.29,22.3-1.37,7.16-2.94,14.35-5.27,21.27-.84,2.5-1.78,5.02-3.07,7.33-.72,1.28-1.71,3.01-3.18,3.55-.24,.09-.54,.06-.77,.15l1.46,.34c1.47,.54,1.87,.6,1.22,.16-.17-.2-.41-.36-.59-.55-1.04-1.12-1.48-2.3-1.86-3.74-.77-2.91-1.55-5.82-2.32-8.73-1.41-5.28-2.84-10.56-4.29-15.83-2.2-8.03-4.45-16.05-6.86-24.02-1.56-5.15-3.16-10.31-5.05-15.35-1.05-2.82-2.15-5.7-3.73-8.27-.89-1.45-1.89-2.66-3.5-3.28-1.33-.51-2.81-.92-4.24-1.04-2.05-.18-3.75,1.74-4.63,3.44-.99,1.92-1.37,4.41-1.84,6.51-.62,2.74-1.15,5.5-1.76,8.24-1.28,5.77-2.96,11.46-4.61,17.14-1.15,3.97-2.33,7.95-3.77,11.83-.8,2.15-1.64,4.5-3.1,6.32-.39,.48-.86,1-1.46,1.21-.1,.03-.2,.04-.3,.08-.77,.28,1.68-.93,3.15,.81-.62-.73-1.06-1.35-1.36-2.29-1.44-4.42-2.28-9.07-3.5-13.56s-2.48-8.65-3.98-12.88-3.06-8.14-5.14-11.95c-1.49-2.72-3.32-5.74-6.01-7.45-.67-.43-1.38-.76-2.14-1.01-1.22-.4-2.89-1.09-4.12-.53-1.11,.5-2.14,1.14-3.09,1.91-2.07,1.67-3.68,3.84-4.97,6.15-3.09,5.53-4.6,11.89-5.61,18.09-1.64,10.08-1.96,20.44-1.46,30.63,0,.2,.13,.7,.05,.89,0,.02,.01,.05,0,.07,.06-.1-.16-.03-.34-.03-.6-.01-1.2,.02-1.79,.04l4.74,1.3c-.15-6.4-.31-12.76,.08-19.16,.63-10.42,1.98-21.62,6.93-30.98,2.37-4.48,5.76-8.36,10.6-10.17l-3.6-.75c.12,.04,.49,.21,.1,.04,.24,.11,.47,.22,.69,.35,.58,.33,1.11,.74,1.61,1.17,1.09,.93,2.03,2.02,2.89,3.16,2.14,2.87,3.76,6.13,5.19,9.4,3.14,7.19,5.38,14.77,7.34,22.36,.61,2.38,1.19,4.77,1.79,7.15,.33,1.32,.61,2.69,1.07,3.97,.14,.39,.32,.97,.67,1.25,.66,.51,1.83,.69,2.61,.88,.57,.14,1.6,.54,2.17,.27s.88-.98,1.15-1.49c.54-1.03,.97-2.13,1.39-3.21,1.24-3.28,2.27-6.65,3.28-10.01,2.45-8.19,4.76-16.43,6.52-24.8,.41-1.96,.81-3.92,1.3-5.87,.4-1.6,.74-3.49,1.54-4.93,.68-1.21,1.72-2.47,2.8-3.34,.36-.29,.73-.54,1.15-.74,.36-.17,1.03-.18,1.33-.38,.25-.16-.01-.09-.39-.17,.45,.1-1.25-.33-1.05-.27,.04,.01-.73-.24-.73-.24,.26,.1-.22-.26-.04-.01,.09,.13,.27,.15,.08,.04,.09,.06,.19,.11,.28,.18,.44,.32,.83,.66,1.19,1.07,1.09,1.2,1.88,2.66,2.61,4.1,1.28,2.52,2.32,5.17,3.3,7.82,3.77,10.13,6.74,20.56,9.69,30.95,2.37,8.35,4.66,16.72,6.9,25.1,.68,2.55,1.36,5.1,2.04,7.65,.53,2.02,1.76,2.97,3.68,3.53,1.07,.31,2.72,1.01,3.79,.34,.44-.27,.77-.7,1.07-1.11,1.03-1.43,1.72-3.12,2.36-4.75,.95-2.43,1.74-4.92,2.46-7.43,1.87-6.49,3.31-13.11,4.53-19.75s2.29-13.98,2.86-21.03c.12-1.55,.22-3.1,.29-4.65,.03-.73,.05-1.45,.07-2.18,.01-.55-.14-1.33,.02-1.86,.16-.57,.91-1.18,1.4-1.5,.06-.04,.65-.25,.78-.36l.3-.06-2.82-.76c-.08-.14,.02,0,.18,.13,.78,.65,1.42,1.33,1.97,2.2,1.69,2.66,2.69,5.79,3.55,8.8,1.25,4.34,2.07,8.78,3.02,13.18,1.68,7.8,3.35,16.04,7.1,23.16,.7,1.34,1.5,2.63,2.47,3.8,1.21,1.46,2.34,2.2,4.21,2.68,.85,.22,1.96,.65,2.8,.22,.72-.36,1.28-1.14,1.73-1.78,.64-.91,1.17-1.89,1.65-2.89,2.46-5.12,3.75-10.83,4.61-16.42,2.4-15.51,1.21-32.11-4.69-46.73-2.71-6.73-6.5-12.98-11.43-18.32-4.65-5.03-10.18-9.14-16.19-12.4-14.14-7.67-30.74-10.93-46.69-11.56-6.84-.27-13.49,.17-20.19,1.61s-12.82,3.55-18.86,6.28c-13.98,6.33-26.43,15.83-36.35,27.52-8.95,10.54-16.03,22.87-20.25,36.05-4.57,14.28-5.51,29.47-3.06,44.24,1.54,9.32,4.36,18.4,8.05,27.08,1.66,3.91,3.52,7.59,5.94,11.08,2.08,3,4.39,5.84,6.9,8.5,11.43,12.11,26.46,20.08,42.6,23.83s33.45,2.43,49.22-2.57c14.5-4.6,27.9-12.65,38.35-23.75,5.12-5.44,9.47-11.56,12.98-18.16l-4.55-1.02,.92,.49-.3-.22c-7.21,11.26-15.94,21.65-26.58,29.82-10.02,7.7-21.57,13.17-33.88,16-7.35,1.69-14.91,2.47-22.45,2.48-.98,0,.61,.54,.77,.59,1.02,.34,2.25,.76,3.34,.76,13.16,0,26.3-2.28,38.4-7.54s22.09-12.8,30.81-22.1c5.41-5.77,10.17-12.11,14.43-18.76-.06-.11-.16-.19-.3-.22l-.92-.49c-.48-.25-4.24-1.59-4.55-1.02-8.35,15.71-21.57,28.33-37.45,36.29-8.15,4.09-16.92,6.93-25.89,8.56-9.41,1.72-19.25,2.36-28.75,.94s-17.89-5.04-25.72-9.93c-7.64-4.77-14.53-10.81-20.11-17.89-2.81-3.57-5.26-7.37-7.13-11.5-2.38-5.27-4.44-10.68-6.1-16.21-2.84-9.45-4.49-19.28-4.56-29.16-.11-15.63,3.88-30.99,11.13-44.81,8.34-15.9,20.54-29.72,35.52-39.66,12.92-8.57,28.01-14.47,43.54-15.71,4.62-.37,9.32-.11,13.93,.24s9.23,.95,13.77,1.9c7.96,1.68,15.68,4.63,22.63,8.88,6.74,4.12,12.72,9.49,17.31,15.93,5.36,7.52,8.77,16.33,10.69,25.33,1.92,8.98,2.4,18.27,1.65,27.41-.58,7.08-1.81,14.32-4.46,20.95-.46,1.15-.97,2.27-1.56,3.36-.67,1.23-1.57,3.07-2.96,3.55l4.67,1.2c-3.55-2.75-5.38-7.42-6.83-11.51-1.95-5.51-3.26-11.23-4.49-16.93-1.26-5.84-2.28-11.77-4.36-17.39-.99-2.69-2.34-6.27-5.11-7.61-1.2-.58-2.58-.91-3.88-1.16s-2.52-.33-3.64,.57c-.32,.26-.89,.71-1.04,1.1-.1,.26-.06,.57-.07,.86,0,1.03-.03,2.06-.07,3.08-.18,4.6-.64,9.18-1.24,13.75-1.24,9.56-3.03,19.09-5.47,28.42-1.04,3.99-2.18,7.99-3.77,11.81-.52,1.26-1.09,2.53-1.85,3.66-.25,.37-.52,.75-.85,1.05-.12,.11-.28,.2-.39,.31-.21,.21-.71,.07,.1,.18l3.42,.88c.35,.12-.25-.36-.35-.5-.35-.44-.64-.94-.82-1.46-.43-1.22-.67-2.54-1.01-3.79-.62-2.33-1.24-4.66-1.87-6.99-1.14-4.22-2.28-8.43-3.44-12.64-1.87-6.76-3.77-13.5-5.77-20.22-2.44-8.19-4.89-16.45-8.16-24.35-1.26-3.04-2.67-6.79-5.27-8.98-1.35-1.14-3.2-1.59-4.87-1.96-1.37-.31-2.85-.58-4.2-.05-1.43,.55-2.5,1.72-3.41,2.92-1.9,2.5-2.43,5.75-3.1,8.77-.95,4.31-1.78,8.65-2.92,12.92-.98,3.68-2.02,7.34-3.07,11s-2.06,7.07-3.21,10.56c-.79,2.39-1.57,4.87-2.78,7.09-.25,.47-.56,1.1-1.07,1.34l4.77,1.15c-.69-.54-.85-2.1-1.05-2.87-.51-1.92-.98-3.84-1.46-5.76-.66-2.69-1.35-5.37-2.1-8.04-1.62-5.79-3.44-11.54-5.79-17.08-1.91-4.5-4.17-9.23-7.68-12.73-1.46-1.46-3.14-2.47-5.09-3.14-1.25-.43-3-1.17-4.31-.73-.79,.27-1.56,.65-2.28,1.06-6.61,3.73-9.86,11.57-11.8,18.53-2.26,8.1-3.13,16.59-3.45,24.97-.13,3.27-.16,6.54-.1,9.82,.03,1.8,0,3.66,.18,5.45,.01,.14,.01,.28,.02,.42,0,.37,1.83,.75,2.03,.81,.87,.24,1.8,.51,2.71,.49l2.24-.04,.11-.05c-.19-5.86-.32-11.69-.02-17.56,.51-10.07,1.63-20.81,5.97-30.05,1.99-4.25,4.96-8.41,9.44-10.26l-4.44-1.07c1.72,.74,3.06,2.23,4.17,3.69,1.58,2.08,2.83,4.42,3.96,6.78,2.63,5.52,4.59,11.36,6.33,17.22s2.97,12.2,4.81,18.18c.3,.97,.73,2.05,1.56,2.69,1.36,1.04,3.67,1.48,5.34,1.6,.93,.07,1.66-.2,2.33-.85,2.24-2.16,3.26-5.86,4.24-8.7,2.16-6.25,3.9-12.65,5.66-19.02,1.1-3.97,2.05-7.95,2.89-11.98,.68-3.28,1.31-6.6,2.38-9.79,.45-1.36,1.27-2.5,2.3-3.5,.27-.27,.58-.55,.93-.72,.49-.24,1.01-.16,.2-.32s-1.9-.46-2.5-.67c-.24-.08-.2-.1-.06,0,.16,.11,.32,.23,.48,.36,2.27,1.94,3.46,5.36,4.53,8.04,2.66,6.61,4.71,13.48,6.74,20.3,3.61,12.15,6.92,24.39,10.2,36.64,.54,2.03,1.09,4.06,1.63,6.09,.46,1.73,.69,3.79,1.56,5.37,.72,1.31,1.64,2.45,3.03,3.06,1.6,.71,3.63,1.32,5.4,1.25,2.43-.09,3.87-2.91,4.81-4.8,1.79-3.58,2.99-7.46,4.07-11.3,1.39-4.93,2.51-9.93,3.49-14.96,1.88-9.57,3.39-19.3,4.01-29.05,.06-.88,.1-1.76,.13-2.64,.02-.62-.25-2.17,.65-2.21l-3.6-.75c-1.21-.39-.78-.37-.37,.05,.19,.2,.34,.43,.5,.65,.48,.73,.87,1.52,1.23,2.31,.94,2.03,1.69,4.15,2.37,6.28,1.52,4.76,2.41,9.65,3.48,14.51s2.15,9.4,3.63,13.99c1.26,3.91,2.77,7.87,5.12,11.27,.93,1.34,2,2.61,3.3,3.61,1.57,1.2,4.17,1.91,6.15,1.67,3.13-.39,4.93-4.41,6.07-6.99,2.76-6.27,4.1-13.22,4.87-20,2.03-18.01-.39-37.61-9.85-53.35-8.41-14-22.39-23.01-37.62-28.13-9.05-3.04-18.49-4.9-27.98-5.79-8.27-.78-16.68-1.01-24.9,.37-15.97,2.69-30.99,10.29-43.48,20.47-13.48,10.97-24.4,25.25-31.55,41.1-6.67,14.8-9.58,31.03-8.28,47.22,.82,10.28,3.25,20.39,6.81,30.05,1.87,5.07,3.89,10.21,6.74,14.81,2.18,3.51,4.68,6.82,7.43,9.91,12.74,14.33,30.37,23.52,49.13,27.02,4.78,.89,9.62,1.38,14.48,1.39,.98,0-.61-.54-.77-.59-1.02-.34-2.24-.75-3.34-.76Z"/></g><g><ellipse class="j" cx="132.87" cy="31.45" rx="7.46" ry="7.13"/><path class="j" d="M138.88,31.84c-.04,2.43-1.51,5.09-3.91,5.9s-5.2-.62-6.68-2.47c-1.72-2.16-1.9-5.24-.48-7.6,1.29-2.14,3.49-3.14,5.91-2.48,3.01,.82,5.1,3.54,5.15,6.65,0,.57,2.91,.12,2.9-.78-.05-3.37-2.48-6.19-5.68-7.06-3.48-.95-7.81,.19-10.23,2.9-2.23,2.49-2.56,6.2-.61,8.96,2.13,3.01,5.95,3.84,9.4,3.05,3.81-.88,7.06-3.75,7.12-7.85,0-.55-2.88-.13-2.9,.78Z"/></g></g></g></svg>