<?xml version="1.0" encoding="UTF-8"?><svg xmlns="http://www.w3.org/2000/svg" xmlns:xlink="http://www.w3.org/1999/xlink" viewBox="0 0 200 200"><defs><style>.i{fill:url(#h);}.j{fill:#231815;}</style><linearGradient id="h" x1="142.17" y1="32" x2="36.64" y2="209.52" gradientTransform="matrix(1, 0, 0, 1, 0, 0)" gradientUnits="userSpaceOnUse"><stop offset="0" stop-color="#10ffa2"/><stop offset="1" stop-color="#c7ffe9"/></linearGradient></defs><g id="a"/><g id="b"/><g id="c"/><g id="d"/><g id="e"/><g id="f"/><g id="g"><g><path class="i" d="M177.94,138.84c2.49-.85-119.23,40.6-117.45-20.17-.77-11.23,5.92-14.27,9.96-14.55,7.49-2.64,19.23,12.34,19.23,12.34,11.59,.08,10.32-10.86,23.15-15.21,19.39,.34,10.23,24.4,26.72,25.59,11.74,.85,13.96-14.98,20.43-17.19,5.28,1.02,16,32.51,26,2.88,7.17-22.11,8.26-89.86-43.19-101.95C82.26-6.95,46.56,27.46,30.95,49.22c-17.1,24.09-38.96,95.8,23.94,138.53,10.58,3.96,27.61,8.05,34.67,7.42,39.39-4.76,81.99-29.27,88.37-56.33Z"/><g><path class="j" d="M90.76,195.8c-30.38,0-56.85-18.98-68.37-40.14C1.14,110.83,11.86,77.01,24.94,55.24,45.67,20.76,79.12,4.2,105.19,4.2c34.97,0,62.73,11.86,75.52,35.14,15.02,27.35,8.17,73.25,.96,84.38-1.52,2.34-3.06,3.44-4.6,3.34l-.3-.02-.24-.17c-7.44-5.12-8.95-15.49-11.79-29.18-1.61-7.77-5.09-12.12-6.91-12.56-.09-.03-.34,.06-.72,.47,.72,10.53-10.09,44.3-17.92,46.21-1.68,.4-3.2-.72-4.56-3.34l-.09-.23c-9.96-48.15-23.37-47.46-26.51-46.93-1.62,1.03-4.23,4.35-4.83,6.29l-.19,.27c-2,5.27-2.1,6.18-4.7,14.37-3.93,12.36-7.21,15.6-10.03,15.34h0c-1.9,0-2.59-2.57-2.86-3.54-.64-2.35-1.27-4.91-1.92-7.55-3.13-12.7-8.51-18.16-16.28-21.35-16.89,6.83-12.92,34.22-12.74,40.13,.02,.62-.47,1.13-1.09,1.15h0c-.61,.01-1.12-.46-1.14-1.07-.2-6.23-4.42-35.36,14.58-42.45l.38-.14,.38,.13c9.16,3.23,14.6,8.94,18.09,23.07,.65,2.62,1.27,5.16,1.91,7.5,.45,1.64,.84,1.92,.84,1.92,2.09-.87,4.63-2.5,7.73-13.73,2.43-8.79,2.77-9.35,4.82-14.7l.14-.26,.27-.38c1.3-1.82,3.39-4.53,5.59-6.67,1.47-.88,16.1-8.9,29.71,47.92,.89,1.68,1.61,2.18,1.99,2.09,5.12-1.25,16.21-23.35,16.21-44.46v-.4l.25-.31c1.04-1.27,2.12-1.78,3.24-1.51,3.05,.74,6.01,1.91,8.57,14.28,2.71,13.1,4.06,22.67,10.56,27.57,.51-.14,1.32-.79,2.3-2.3,6.96-10.75,13.56-55.5-1.04-82.08C166.36,17.86,140.3,6.43,106.54,6.43c-.43,0-.85,0-1.28,0-24.92,1.14-58.07,16.15-78.39,49.95-12.81,21.31-23.28,54.38-2.48,98.26,11.18,20.54,37.1,39.08,67,38.91,35.03-.22,66.25-17.29,81.74-46.6l.92,.49c-19.91,31.16-46.78,48.12-82.65,48.35-.21,0-.42,0-.63,0Z"/><path class="j" d="M88.71,195.13c-8.39-.02-16.57-1.48-24.37-4.59s-14.95-7.45-21.36-12.72c-5.97-4.91-11.31-10.67-15.54-17.15-2.49-3.82-4.33-7.93-6.03-12.16-1.83-4.52-3.42-9.14-4.72-13.85-4.31-15.61-5.23-32.08-1.77-47.95,2.83-13,8.46-25.24,15.9-36.24,9.18-13.56,21.24-25.23,35.42-33.49,11.72-6.83,25.06-11.49,38.69-12.05,8.24-.34,16.7,.34,24.82,1.79,7.19,1.28,14.19,3.41,20.78,6.56,12.75,6.1,23.58,15.98,29.53,28.92,6.29,13.66,7.7,29.41,7.08,44.28-.28,6.81-1.04,13.63-2.39,20.31-.98,4.85-2.19,9.83-4.38,14.3-1.06,2.17-2.87,5.49-5.65,5.27l4.41,1.2c-5.05-3.51-7.3-9.18-8.84-14.93-.98-3.67-1.72-7.4-2.47-11.12s-1.54-7.59-3.36-11.06c-.95-1.8-2.21-3.87-4.11-4.79-.67-.33-1.41-.53-2.12-.73-.76-.21-2.15-.74-2.96-.42-.87,.35-.53,1.65-.56,2.44-.19,4.71-1.32,9.43-2.53,13.97-1.47,5.53-3.29,10.98-5.53,16.25-1.76,4.13-3.74,8.59-6.84,11.92-.51,.54-1.06,1.06-1.68,1.47-.25,.17-.52,.32-.8,.43-.13,.05-.26,.09-.39,.13-.1,.03-.23,.03-.32,.07-.75,.04-.35,.16,1.2,.36,1.42,.53,1.87,.61,1.34,.25-.16-.28-.6-.51-.83-.77-.36-.41-.67-.88-.94-1.35-.5-.85-.61-1.76-.82-2.72-.46-2.16-.95-4.32-1.48-6.46-1.65-6.75-3.59-13.46-6.24-19.89s-5.93-13.39-11.76-17.15c-2.23-1.44-4.85-2.21-7.44-2.69-1.12-.21-2.76-.53-3.9-.14s-2.14,1.85-2.82,2.72c-.91,1.16-1.58,2.37-2.2,3.69-.96,2.08-1.65,4.32-2.34,6.51-2.02,6.47-3.62,13.42-7.16,19.27-.88,1.45-2.02,3.14-3.65,3.82-.48,.2-1.01,.16-1.36,.25l1.6,.39c1.53,.63,2.03,.73,1.5,.31-.09-.15-.29-.28-.4-.43-.21-.26-.37-.55-.51-.85-.24-.51-.4-1.05-.55-1.58-1.98-7.11-3.11-14.6-7.5-20.76-1.57-2.21-3.5-4.13-5.75-5.65-2.65-1.8-5.87-3.43-9.07-3.83-1.19-.15-2.56,.82-3.55,1.43-1.06,.67-2.05,1.45-2.94,2.33-1.76,1.73-3.13,3.82-4.17,6.06-3.95,8.46-3.66,18.37-3.02,27.46,.05,.65,.09,1.31,.13,1.96,.01,.25,.05,.51,.04,.76s0,.49-.13,.71c-.15,.27-.31,.25-.55,.48-.12,.11-.76-.04,.06,.05l3.42,.88s-.15-.59-.19-.85c-.02-.17-.02-.35-.03-.52-.03-.46-.06-.93-.09-1.39-.08-1.17-.16-2.33-.23-3.5-.18-3.12-.24-6.24-.1-9.36,.32-7,1.59-14.47,5.72-20.31,2.41-3.4,5.7-5.83,9.59-7.29l-3.6-.75c.3,.11,.45,.16,.97,.36s1.03,.42,1.53,.65c1.04,.48,2.05,1.03,3.01,1.66,1.84,1.2,3.49,2.67,4.88,4.36,3.67,4.44,5.56,10.12,6.93,15.63,.54,2.15,1.06,4.31,1.63,6.45,.23,.87,.4,2.45,1.19,3.06,.57,.45,1.61,.63,2.28,.8,.58,.15,1.81,.64,2.39,.4,3.79-1.58,5.32-5.92,6.54-9.53s2.14-7.48,3.3-11.2c.69-2.21,1.51-4.37,2.34-6.53,.51-1.34,1.18-2.31,2.05-3.45,.64-.84,1.3-1.67,1.99-2.47,.73-.86,1.51-1.95,2.43-2.61,.23-.17,.41-.23,.58-.3,.39-.17,.79-.29,1.21-.38,.26-.05,.51-.09,.77-.12,.14-.01,.29-.02,.43-.03,.21,0-.02,0,0,0,.09,0,.19,0,.28,0,.07,0,.15,.01,.22,.01,.33,.01-.09,.03-.1-.01,0,.01,.2,.03,.24,.03-.1-.02-.5-.09-.12-.02-.38-.07-.55-.11-.84-.19,.44,.11-.64-.18-.31-.09-.83-.24-.38-.11-.19-.06-.34-.11-.32-.21-.09-.03s-.01,0,0,0c.11,.05,.22,.1,.32,.15,.12,.06,.56,.29,.48,.24,.47,.26,.92,.56,1.35,.88,2.43,1.79,4.35,4.22,5.99,6.73,2.76,4.22,4.87,8.86,6.7,13.55,2.9,7.4,5.12,15.05,7.07,22.74,.47,1.85,.66,4.1,2.21,5.41,.59,.5,1.42,.72,2.15,.93,.94,.27,2.19,.75,3.19,.59,1.51-.24,2.82-1.89,3.7-2.99,3.95-4.95,6.47-11.2,8.45-17.15,1.32-3.95,2.36-8,3.08-12.09,.37-2.09,.66-4.2,.85-6.32,.1-1.06,.17-2.13,.22-3.19,.04-.93-.08-1.96,.06-2.87,.09-.57,.51-.95,.97-1.35,.38-.33,.83-.44,1.21-.7l.3-.06-1.36-.33c.1,.02,.2,.05,.3,.08-.22-.05-.23-.07-.56-.16,.15,.04-.12-.04-.14-.05,.24,.15,.52,.25,.76,.42,1.72,1.14,2.71,3.11,3.46,4.97,1.5,3.71,2.21,7.69,3,11.6s1.54,7.78,2.61,11.59c.85,3.02,1.93,6.06,3.68,8.69,.74,1.1,1.58,2.13,2.56,3.03,.59,.54,1.13,.97,1.89,1.24,1.02,.36,2.73,1.05,3.84,.84,1.19-.23,2.11-1.84,2.67-2.77,.41-.68,.77-1.39,1.1-2.11,.86-1.89,1.53-3.86,2.12-5.84,1.58-5.33,2.56-10.84,3.24-16.36,1.66-13.62,1.47-27.79-1.72-41.19-3.03-12.69-9.44-24.1-19.51-32.52-10.86-9.07-24.61-13.96-38.35-16.63-13.61-2.65-27.77-3.38-41.32-.12-12.7,3.06-24.74,8.87-35.25,16.59-12.16,8.93-22.25,20.48-29.71,33.58-5.92,10.41-10.1,21.81-11.89,33.68-2.29,15.17-.56,30.66,4.05,45.24,2.53,8.01,5.61,16.08,10.46,23,4.06,5.8,8.99,10.97,14.5,15.42,12.34,9.96,27.63,16.18,43.34,18.17s30.82-.35,44.96-5.58c13.3-4.91,25.48-12.82,35.04-23.32,4.71-5.18,8.74-10.95,12.02-17.13l-4.55-1.02,.92,.49-.3-.22c-7.21,11.26-15.94,21.65-26.58,29.82-10.02,7.7-21.57,13.17-33.88,16-7.35,1.69-14.91,2.47-22.45,2.48-.98,0,.61,.54,.77,.59,1.02,.34,2.25,.76,3.34,.76,13.16,0,26.3-2.28,38.4-7.54,11.72-5.09,22.09-12.8,30.81-22.1,5.41-5.77,10.17-12.11,14.43-18.76-.06-.11-.16-.19-.3-.22l-.92-.49c-.48-.25-4.24-1.59-4.55-1.02-8.63,16.24-22.48,29.16-39.05,37.07-8.53,4.07-17.69,6.8-27.03,8.24-9.81,1.52-20.06,1.91-29.81-.21s-18.2-6.42-25.95-11.93-14.26-12.02-19.36-19.75c-2.96-4.49-5.04-9.42-6.96-14.43-2.01-5.25-3.68-10.64-4.94-16.13-2.17-9.48-3.06-19.26-2.37-28.97,1.09-15.47,6.25-30.35,14.27-43.57,9.95-16.42,24.2-30.14,41.23-39.07,7.24-3.8,14.96-6.72,22.94-8.54,3.53-.81,7.11-1.4,10.72-1.72,4.76-.43,9.58-.21,14.34,.14,8.93,.65,17.81,2.23,26.16,5.53,7.79,3.08,15.07,7.53,21.12,13.34s10.51,12.62,13.48,20.27c3.21,8.3,4.73,17.2,5.32,26.05,.57,8.62,.24,17.32-.89,25.88-.86,6.48-2.09,13.1-4.5,19.2-.4,1.03-.85,2.04-1.37,3.01-.64,1.19-1.52,2.93-2.86,3.38l4.67,1.2c-5.78-4.45-7.35-12.38-8.78-19.11-.97-4.58-1.69-9.25-3.05-13.73-.76-2.51-1.72-5.27-3.63-7.15-1.49-1.47-3.63-2.06-5.6-2.57-1.67-.43-3.56-1.02-5.08,.09-.5,.36-1.11,.89-1.25,1.48-.22,.95-.02,2.19-.07,3.18-.43,9.08-2.62,18.12-6.04,26.53-1.45,3.57-3.14,7.09-5.29,10.29-.77,1.14-1.6,2.25-2.58,3.21-.34,.33-.71,.66-1.11,.92-.19,.12-.39,.21-.58,.33-.27,.17-.78,.07,.01,.18l3.42,.88c.35,.12-.07-.16-.17-.28-.26-.33-.53-.67-.73-1.04-.48-.9-.61-2.02-.86-3-.48-1.94-.98-3.87-1.51-5.8-.91-3.34-1.89-6.66-2.96-9.96-1.65-5.05-3.51-10.04-5.82-14.82-2.44-5.04-5.52-10.64-10.28-13.87-1.96-1.34-4.24-2.08-6.54-2.59-1.5-.33-3.08-.6-4.61-.33-.65,.12-1.35,.33-1.92,.67-1.29,.77-2.32,2.29-3.26,3.44s-1.91,2.33-2.73,3.57c-.56,.85-.84,1.91-1.2,2.86-1.86,4.83-3.09,9.82-4.61,14.76-1.09,3.54-2.43,8.42-5.75,10.61-.37,.24-.75,.43-1.16,.6l4.67,1.2c-.81-.63-.98-2.61-1.22-3.51-.54-2.07-1.04-4.15-1.56-6.23-.84-3.33-1.89-6.63-3.38-9.73-2.25-4.67-5.59-8.52-10.15-11.04-2.58-1.43-5.51-2.65-8.41-3.19-2.26-.42-4.96,1.51-6.69,2.83-3.87,2.93-6.37,7.24-7.85,11.8-2.66,8.2-2.41,17.01-1.82,25.51,.04,.6,.09,1.19,.12,1.79,.06,1.13,.42,1.59,1.53,2.01,1.18,.44,2.46,.78,3.72,.91,.54,.06,1.14,.09,1.55-.35,.47-.5,.28-1.37,.24-2.01-.23-3.62-.5-7.24-.46-10.87,.09-9.18,1.62-20.4,9.71-26.12,1.08-.76,2.23-1.38,3.45-1.88l-4.08-.92c3.42,1.42,6.52,3.56,8.93,6.39,3,3.53,4.83,7.92,6.1,12.34,.85,2.96,1.5,5.98,2.29,8.96,.42,1.57,.82,3.48,2.37,4.32,1.68,.92,4.21,1.59,6.16,1.34,.89-.11,1.7-.58,2.37-1.15,2.69-2.29,4.13-6.14,5.35-9.33,1.73-4.52,3.01-9.2,4.48-13.81,1.11-3.46,2.23-6.91,4.58-9.74,.66-.79,1.55-2.03,2.6-2.26,.28-.06,.6-.06,.89-.06-.35,0,.21,.01,.33,.02,.6,.02-.18-.04,.33,.03-.2-.03-.37-.07-.61-.13-.04,0-1-.27-.54-.14-.81-.24,.12,0-.46-.15,.13,.03,.27,.1,.39,.15-.46-.21,.01,0,.11,.06,.25,.13,.61,.31,.68,.35,.66,.38,1.28,.82,1.86,1.29,3.68,2.97,6.21,7.25,8.27,11.44,4.03,8.19,6.56,17.11,8.65,25.96,.35,1.5,.69,2.99,1.02,4.5s.51,2.64,1.36,3.89c1.55,2.27,4.22,3,6.84,3.36,2.48,.34,4.21-1.3,5.65-3.11,1.96-2.46,3.44-5.32,4.77-8.17,1.68-3.59,3.11-7.31,4.37-11.07,2.27-6.74,4.35-13.87,4.87-20.99,.04-.61,.07-1.22,.07-1.83,0-.53-.23-1.49,.58-1.53l-3.03-.58c-1.75-.49-.62-.15-.02,.43s1.09,1.23,1.54,1.91c1.17,1.77,2.03,3.76,2.69,5.77,1.63,4.98,2.24,10.3,3.45,15.39,.96,4.06,2.1,8.21,4.21,11.85,.86,1.47,1.88,2.86,3.1,4.05,1.78,1.74,3.59,2.61,6.09,3,2,.32,3.49-.31,4.83-1.84,.9-1.03,1.59-2.22,2.19-3.45,1.13-2.32,1.96-4.79,2.67-7.26,2.02-7,3.12-14.29,3.73-21.54,1.41-16.86,.35-35.18-7-50.68-7.01-14.8-20.18-25.12-35.17-31.09-8.94-3.56-18.45-5.82-27.98-7.07-8.66-1.13-17.65-1.72-26.35-.7-16.14,1.9-31.51,9.06-44.36,18.85-14.22,10.84-25.77,25.28-33.42,41.44-6.96,14.69-10.23,30.9-9.24,47.14,.63,10.31,2.89,20.47,6.32,30.2,1.84,5.23,3.85,10.62,6.68,15.4,2.15,3.63,4.66,7.06,7.42,10.25,12.7,14.68,30.47,24.1,49.43,27.74,4.9,.94,9.88,1.45,14.87,1.46,.98,0-.61-.54-.77-.59-1.02-.34-2.24-.75-3.34-.76Z"/></g><g><ellipse class="j" cx="130.52" cy="31.45" rx="7.46" ry="7.13"/><path class="j" d="M136.54,31.84c-.04,2.43-1.51,5.09-3.91,5.9s-5.2-.62-6.68-2.47c-1.72-2.16-1.9-5.24-.48-7.6,1.29-2.14,3.49-3.14,5.91-2.48,3.01,.82,5.1,3.54,5.15,6.65,0,.57,2.91,.12,2.9-.78-.05-3.37-2.48-6.19-5.68-7.06-3.48-.95-7.81,.19-10.23,2.9-2.23,2.49-2.56,6.2-.61,8.96,2.13,3.01,5.95,3.84,9.4,3.05,3.81-.88,7.06-3.75,7.12-7.85,0-.55-2.88-.13-2.9,.78Z"/></g></g></g></svg>