<?xml version="1.0" encoding="UTF-8"?><svg xmlns="http://www.w3.org/2000/svg" xmlns:xlink="http://www.w3.org/1999/xlink" viewBox="0 0 200 200"><defs><style>.i{fill:url(#h);}.j{fill:#231815;}</style><linearGradient id="h" x1="140.46" y1="33.92" x2="36.72" y2="208.43" gradientTransform="matrix(1, 0, 0, 1, 0, 0)" gradientUnits="userSpaceOnUse"><stop offset="0" stop-color="#10ffa2"/><stop offset="1" stop-color="#c7ffe9"/></linearGradient></defs><g id="a"/><g id="b"/><g id="c"/><g id="d"/><g id="e"/><g id="f"/><g id="g"><g><path class="i" d="M172.91,146.97c2.49-.85-103.25,29.92-114.74-38-.77-22.21,5.23-31.02,10.89-32.75,7.83,1.36,21.11,26.28,21.11,26.28,0,0,12.17-29.79,20.09-33.87,14.04,6.64,20.75,46.91,27.52,45.96,8.14-1.14,16.05-24.17,22.01-32.68,5.43,0,11.23,63.15,24.37,26.78,7.17-22.11,9.69-75-40.44-96.45C83.19-5.29,47.54,27.46,31.93,49.22,14.82,73.31-7.03,145.01,55.87,187.75c10.58,3.96,27.61,8.05,34.67,7.42,39.39-4.76,64.3-18.64,82.36-48.21Z"/><g><path class="j" d="M90.55,195.8c-30.36,0-56.82-18.95-68.35-40.1-.01-.03-.03-.05-.04-.08C.93,110.81,11.65,77,24.73,55.24,45.45,20.76,78.91,4.2,104.98,4.2c34.97,0,62.73,11.86,75.52,35.14,15.02,27.35,8.17,67.25,.96,78.38-1.52,2.34-3.06,3.44-4.6,3.34l-.3-.02-.24-.17c-7.44-5.12-8.95-20.49-11.79-34.18-1.61-7.77-5.09-17.12-6.91-17.56-.09-.03-.34,.06-.72,.47,.72,10.53-10.09,47.3-17.92,49.21-1.68,.4-3.2-.72-4.56-3.34l-.09-.23c-16.14-60.96-23.2-53.65-26.4-52.95-.08,.02-.15,.03-.22,.07-1.85,.81-4.13,4.35-4.72,6.24l-.19,.27c-2,5.27-2.41,6.09-4.7,14.37-5.89,21.31-6.67,20.33-10.03,20.34h0c-1.9,0-2.59-2.57-2.86-3.54-.64-2.35-1.27-4.91-1.92-7.55-3.07-12.45-8.3-22.74-15.83-26.15-.29-.13-.63-.13-.92,0-16.56,7.27-15.46,38.6-15.28,44.94,.02,.62-.47,1.13-1.09,1.14h0c-.61,.01-1.12-.46-1.14-1.08-.2-6.71-1.51-40.33,17.57-47.45l.38-.14,.38,.13c9.16,3.23,14.6,13.94,18.09,28.07,.65,2.62,1.27,5.16,1.91,7.5,.05,.17,.09,.33,.14,.47,.27,.86,1.41,1.06,1.95,.33,1.84-2.45,3.98-8.53,6.48-17.61,2.43-8.79,2.77-9.35,4.82-14.7l.14-.26,.27-.38c1.3-1.82,3.39-4.53,5.59-6.67,1.47-.88,11.68-14.09,29.67,53.78,.02,.09,.06,.18,.1,.26,.86,1.58,1.56,2.05,1.92,1.96,5.12-1.25,16.21-26.35,16.21-47.46v-.4l.25-.31c1.04-1.27,2.12-1.78,3.24-1.51,3.05,.74,6.01,6.91,8.57,19.28,2.62,12.64,3.97,26.66,9.9,32.03,.44,.4,1.1,.4,1.54,0,.41-.37,.89-.94,1.43-1.76,6.96-10.75,13.56-49.5-1.04-76.08C166.15,17.86,140.09,6.43,106.32,6.43c-.43,0-.85,0-1.28,0-24.92,1.14-58.07,16.15-78.39,49.95-12.8,21.3-23.27,54.36-2.5,98.22,.01,.03,.03,.05,.04,.08,11.2,20.52,37.09,39.04,66.98,38.87,35.03-.22,66.25-17.29,81.74-46.6l.92,.49c-19.91,31.16-46.78,48.12-82.65,48.35-.21,0-.42,0-.63,0Z"/><path class="j" d="M88.49,195.13c-8.16-.02-16.15-1.38-23.75-4.34s-14.76-7.18-21.14-12.28c-5.95-4.77-11.3-10.36-15.6-16.66-5.02-7.36-8.2-16.01-10.76-24.51-4.63-15.36-6.06-31.65-3.17-47.48,2.25-12.31,7.01-24.04,13.52-34.7,8.51-13.94,19.92-26.14,33.58-35.16,11.4-7.53,24.46-12.95,38.08-14.61,7.36-.9,14.9-.54,22.26,.22s14.67,2.17,21.63,4.69c12.96,4.69,24.82,12.81,32.51,24.41,8.56,12.91,11.46,28.92,11.39,44.19-.03,7.05-.7,14.12-2.09,21.04-1.03,5.14-2.37,10.38-4.73,15.09-1.09,2.17-2.9,5.57-5.71,5.35l4.41,1.2c-6.05-4.22-7.71-12.86-9.13-19.6-1.87-8.91-2.99-17.99-6.35-26.52-.6-1.52-1.24-3.08-2.14-4.45-.77-1.17-1.62-1.57-2.97-1.97-.86-.25-2.37-.87-3.28-.51-.65,.26-.55,.67-.54,1.24,.02,1-.05,2-.14,2.99-.53,5.74-1.92,11.43-3.48,16.97-1.73,6.19-3.79,12.34-6.5,18.17-1.06,2.28-2.22,4.54-3.67,6.6-.92,1.31-2.1,2.9-3.65,3.5-.13,.05-.27,.1-.41,.13-.15,.04-.4,.02-.52,.07l1.46,.34c1.47,.54,1.87,.6,1.22,.16-.74-.88-1.58-1.62-2.02-2.73s-.63-2.3-.93-3.42c-.35-1.28-.7-2.56-1.05-3.83-1.23-4.43-2.51-8.85-3.88-13.24-1.97-6.33-4.09-12.65-6.69-18.76-1.46-3.43-3.05-6.87-5.18-9.94-1.12-1.61-2.41-3.21-4.17-4.14-2.9-1.53-6.12-2.07-9.19-1.05-2.67,.88-4.24,4.2-5.29,6.58-1.1,2.5-2.01,5.16-2.82,7.77-2.31,7.37-3.88,15.01-6.7,22.22-.75,1.93-1.64,4.58-4.03,4.74-.31,.02,.05,0-.34,0-1.85-.01,1.75-.33,2.68,.78-1.06-1.26-1.44-2.5-1.86-4.08-1.26-4.76-2.28-9.57-3.93-14.21-2.47-6.95-6.24-14.7-13.07-18.29-.99-.52-2.04-.85-3.12-1.13s-2.27-.63-3.35-.16c-1.25,.55-2.42,1.3-3.49,2.15-2.21,1.75-3.98,4-5.38,6.44-3.05,5.31-4.51,11.46-5.34,17.47-.7,5.05-.94,10.17-.89,15.26,0,.78,.02,1.56,.04,2.34,0,.31,.03,.63,.03,.94,0,.23,.02,.44-.08,.67s-.2,.36-.41,.49c-.28,.17-.83,.1-.13,.18l3.42,.88s-.17-.65-.19-.94c-.01-.19-.01-.38-.02-.57-.01-.51-.03-1.02-.04-1.53-.03-1.3-.04-2.59-.02-3.89,.03-3.53,.22-7.07,.61-10.58,.88-7.89,2.7-16.24,7.34-22.85,2.52-3.58,5.87-6.32,9.99-7.85l-3.6-.75c.31,.11,.81,.31,1.37,.58,.73,.36,1.43,.78,2.1,1.24,1.33,.92,2.54,2.01,3.62,3.21,2.43,2.67,4.25,5.85,5.74,9.12,1.79,3.94,3.1,8.08,4.19,12.27,.61,2.35,1.16,4.71,1.77,7.05,.2,.78,.29,1.84,.77,2.51,.63,.87,2.29,1.12,3.23,1.35,.81,.19,2.01,.6,2.83,.27,.54-.21,.85-.82,1.13-1.29,.67-1.12,1.19-2.32,1.68-3.53,1.57-3.9,2.75-7.97,3.89-12.01,.97-3.45,1.88-6.93,3.05-10.33,.84-2.4,1.59-4.97,3.11-7.02,1.69-2.29,3.46-4.78,5.8-6.46,.69-.49,1.26-.76,2.12-.89,.12-.02,.24-.02,.36-.03,.11,0-.16,.03,.16,0,.45-.04-.33-.06,.05,0-.71-.12-1.33-.27-1.98-.46-.42-.13,.12,.06-.46-.15,.32,.12-.13-.06-.08-.04,.16,.09,.33,.15,.5,.24-.1-.05,.14,.08,.32,.19s.34,.23,.51,.35c1.97,1.45,3.48,3.51,4.79,5.54,2.41,3.75,4.3,7.85,6.01,11.96,2.75,6.59,5.02,13.38,7.11,20.21,1.41,4.6,2.72,9.22,3.98,13.86,.49,1.8,.88,3.99,2.77,4.84,1.16,.52,2.49,.83,3.74,1.01,.52,.07,.9,.08,1.37-.13,1.58-.72,2.72-2.42,3.65-3.81,1.7-2.54,3.06-5.31,4.28-8.11,3.24-7.41,5.53-15.3,6.84-23.28,.35-2.15,.63-4.32,.82-6.5,.08-.98,.15-1.95,.19-2.93,.04-.91-.14-2.02,.06-2.9,.13-.59,.76-1.13,1.25-1.48,.96-.69,2.07-.3-.19-.91-1.25-.34-1.76-.7-1.29-.29,.73,.65,1.36,1.23,1.91,2.06,1.78,2.68,2.78,5.91,3.67,8.97,1.29,4.5,2.18,9.11,3.03,13.71s1.56,8.76,2.63,13.07c.88,3.53,1.95,7.17,3.92,10.27,.78,1.22,1.74,2.66,3.13,3.21,1.22,.49,2.64,.89,3.94,1,1.02,.09,1.53-.25,2.17-1.03,1.43-1.73,2.37-3.91,3.18-5.98,2.17-5.55,3.41-11.48,4.23-17.37,2.11-15.17,1.37-31.36-4.05-45.79-5.01-13.35-14.54-24.1-26.94-31.06-13.95-7.82-30.4-11.24-46.25-12.04-7.02-.35-13.85-.05-20.74,1.37-6.52,1.34-12.89,3.44-18.97,6.13-13.98,6.19-26.47,15.56-36.46,27.12-9.15,10.59-16.4,23.02-20.74,36.35-4.65,14.27-5.66,29.47-3.27,44.27,1.5,9.29,4.27,18.35,7.92,27.02,1.63,3.88,3.43,7.56,5.79,11.05,2.04,3.01,4.33,5.86,6.8,8.53,11.39,12.27,26.46,20.39,42.68,24.23s33.44,2.57,49.24-2.38c14.63-4.58,28.16-12.67,38.69-23.86,5.12-5.44,9.48-11.56,12.98-18.16l-4.55-1.02,.92,.49-.3-.22c-7.21,11.26-15.94,21.65-26.58,29.82-10.02,7.7-21.57,13.17-33.88,16-7.35,1.69-14.91,2.47-22.45,2.48-.98,0,.61,.54,.77,.59,1.02,.34,2.25,.76,3.34,.76,13.16,0,26.3-2.28,38.4-7.54,11.72-5.09,22.09-12.8,30.81-22.1,5.41-5.77,10.17-12.11,14.43-18.76-.06-.11-.16-.19-.3-.22l-.92-.49c-.48-.25-4.24-1.59-4.55-1.02-8.43,15.87-21.84,28.58-37.93,36.52-8.24,4.07-17.09,6.87-26.14,8.46-9.59,1.68-19.65,2.26-29.28,.61s-18.03-5.52-25.85-10.63-14.31-11.11-19.72-18.32c-6.28-8.37-10.03-18.5-12.83-28.51-2.64-9.44-4.07-19.22-3.94-29.03,.22-15.64,4.56-30.91,12.07-44.6,8.81-16.07,21.6-29.89,37.19-39.57,7.06-4.39,14.66-7.92,22.6-10.4,6.82-2.13,14.13-3.72,21.31-3.78,17.73-.16,35.93,3.02,50.69,13.36,6.5,4.55,12.08,10.35,16.21,17.14,4.78,7.86,7.54,16.81,8.91,25.87,1.34,8.82,1.41,17.84,.47,26.71-.75,6.99-2.05,14.08-4.6,20.65-.43,1.12-.91,2.22-1.46,3.29-.25,.48-.51,.95-.79,1.41-.41,.66-1.29,2.33-2.2,2.32l2.77,.58-.32-.1,1.64,.62c-2.95-1.97-4.39-6.4-5.38-9.6-1.39-4.5-2.23-9.15-3.08-13.77-.92-4.99-1.8-9.99-3.1-14.89-.94-3.52-2-7.23-3.97-10.33-1.62-2.54-3.8-3.43-6.74-3.99-.95-.18-1.89-.34-2.8,.06-.63,.27-1.7,1-1.94,1.69-.22,.62,0,1.66-.03,2.33-.04,1.24-.11,2.48-.22,3.71-.76,9-3,17.94-6.25,26.36-1.43,3.7-3.07,7.38-5.18,10.75-.72,1.15-1.5,2.28-2.44,3.26-.32,.34-.67,.66-1.05,.93-.16,.12-.35,.2-.51,.32-.28,.19-.75,.07,0,.19l3.42,.88c.54,.21,.08-.03-.14-.26-.35-.37-.69-.85-.89-1.32-.45-1.03-.64-2.26-.93-3.34-.57-2.09-1.15-4.17-1.74-6.25-1.07-3.74-2.19-7.47-3.38-11.18-1.82-5.66-3.79-11.29-6.12-16.77s-5.04-11.83-9.56-16c-1.42-1.31-3.05-2.09-4.9-2.63-1.65-.48-3.67-1.09-5.41-.62-2.73,.74-4.86,3.85-6.39,5.79-.84,1.07-1.86,2.17-2.36,3.45-.43,1.08-.84,2.16-1.25,3.25-.82,2.18-1.52,4.4-2.17,6.64-1.95,6.72-3.41,13.91-6.62,20.18-.4,.79-.94,2.15-1.94,2.21l1.15,.12-.26-.04,3.29,.95c-.65-.28-.77-1.64-.92-2.24-.31-1.17-.6-2.33-.89-3.5-.53-2.14-1.04-4.28-1.65-6.4-1.05-3.7-2.32-7.35-3.99-10.82-2.61-5.44-6.36-10.64-11.98-13.23-1.63-.75-3.36-1.35-5.12-1.67-1.34-.25-2.36,.3-3.54,.9-2.25,1.13-4.24,2.7-5.93,4.57-3.47,3.84-5.6,8.73-7.02,13.66-2.49,8.65-3,17.81-2.77,26.77,.01,.51-.03,1.07,.04,1.58,.26,1.84,3.67,2.18,5.07,2.36,1.25,.16,2-.26,1.99-1.57,0-.63-.03-1.27-.05-1.9-.08-4.18,.04-8.37,.43-12.53,.5-5.32,1.41-10.67,3.22-15.72,1.7-4.76,4.3-9.44,8.45-12.48,.84-.62,2.41-1.91,3.49-1.91l-2.77-.58c-1.83-.53-.1,.08,.41,.4s.97,.65,1.43,1c.97,.75,1.86,1.61,2.68,2.52,1.89,2.11,3.41,4.53,4.7,7.05,3.09,6.04,4.67,12.56,6.33,19.09,.5,1.95,.82,5.14,2.71,6.36,1.69,1.09,4.13,1.48,6.13,1.49,1.28,0,2.27-.22,3.09-1.28,1.76-2.25,2.54-5.46,3.38-8.11,1.86-5.85,3.3-11.82,5.13-17.67,1.18-3.76,2.42-7.95,4.66-11.22,.87-1.27,1.91-2.6,3.41-3.08,.23-.07,.46-.15,.7-.23,.26-.08,.53-.17,.8-.22,.15-.03,.29-.05,.44-.07,.13-.02,.63-.07,.25-.03,.08,0,.17,.02,.25,0,.36-.04-.38-.06-.09-.01-.43-.07-1.62-.35-2.17-.53-.69-.22-.44-.15-.29-.1,.23,.08-.38-.19-.17-.07,.1,.05,.2,.09,.3,.14,.29,.17-.09-.07,.13,.07,.11,.07,.21,.13,.32,.2,2.95,2.11,4.78,5.69,6.35,8.86,3.85,7.77,6.56,16.13,9.11,24.39,.96,3.11,1.88,6.24,2.76,9.37,.5,1.75,.98,3.5,1.46,5.26,.44,1.6,.71,3.38,1.35,4.91,1.31,3.15,4.46,4.21,7.61,4.65,1.4,.19,2.5-.15,3.58-1.03,2.36-1.93,3.91-4.95,5.24-7.62,1.96-3.93,3.54-8.06,4.95-12.22,2.71-8,5.14-16.46,5.86-24.91,.06-.71,.1-1.43,.11-2.14,0-.56-.27-1.73,.58-1.77l-3.6-.75c-1.21-.39-.78-.37-.37,.05,.19,.2,.34,.43,.5,.65,.48,.73,.87,1.52,1.23,2.31,.97,2.09,1.74,4.28,2.43,6.47,1.53,4.84,2.46,9.81,3.39,14.79s1.78,9.72,3.16,14.46c1.09,3.73,2.51,7.6,5.1,10.57s7.55,4.95,10.63,1.86c1.96-1.96,3.14-4.77,4.12-7.32,2.52-6.56,3.85-13.61,4.64-20.58,1.98-17.58,.38-36.78-8.32-52.5-7.86-14.21-21.45-23.76-36.51-29.16-9.08-3.25-18.58-5.3-28.16-6.34-8.45-.91-17.12-1.29-25.55-.03-16.09,2.42-31.28,9.9-43.92,19.99-13.65,10.89-24.74,25.15-32.04,41.01-6.8,14.76-9.86,31-8.69,47.23,.74,10.3,3.11,20.44,6.62,30.14,1.83,5.05,3.8,10.22,6.59,14.84,2.17,3.59,4.68,6.97,7.44,10.13,12.71,14.52,30.41,23.84,49.27,27.42,4.85,.92,9.78,1.42,14.72,1.44,.98,0-.61-.54-.77-.59-1.02-.34-2.24-.75-3.34-.76Z"/></g><g><ellipse class="j" cx="130.31" cy="31.45" rx="7.46" ry="7.13"/><path class="j" d="M136.33,31.84c-.04,2.43-1.51,5.09-3.91,5.9s-5.2-.62-6.68-2.47c-1.72-2.16-1.9-5.24-.48-7.6,1.29-2.14,3.49-3.14,5.91-2.48,3.01,.82,5.1,3.54,5.15,6.65,0,.57,2.91,.12,2.9-.78-.05-3.37-2.48-6.19-5.68-7.06-3.48-.95-7.81,.19-10.23,2.9-2.23,2.49-2.56,6.2-.61,8.96,2.13,3.01,5.95,3.84,9.4,3.05,3.81-.88,7.06-3.75,7.12-7.85,0-.55-2.88-.13-2.9,.78Z"/></g></g></g></svg>