<?xml version="1.0" encoding="UTF-8"?><svg xmlns="http://www.w3.org/2000/svg" xmlns:xlink="http://www.w3.org/1999/xlink" viewBox="0 0 150 150"><defs><style>.f{letter-spacing:-.02em;}.g{letter-spacing:-.02em;}.h{font-family:LuckiestGuy-Regular, Luckiest Guy;font-size:26.46px;}.h,.i{fill:#231815;}.j{letter-spacing:0em;}.k{fill:url(#e);}.l{letter-spacing:0em;}</style><linearGradient id="e" x1="97.02" y1="23.16" x2="43.56" y2="113.09" gradientTransform="matrix(1, 0, 0, 1, 0, 0)" gradientUnits="userSpaceOnUse"><stop offset="0" stop-color="#20b790"/><stop offset="1" stop-color="#65ceb3"/></linearGradient></defs><g id="a"/><g id="b"/><g id="c"/><g id="d"><g><path class="k" d="M113.7,81.39s-53.34,33.67-64.43-20.86c-.48-28.86,11.68-31.71,14.43-20.42,5.78,11.52,7.67,15.34,7.67,15.34,0,0,5.68-20.66,9.7-24.66,4.14,1.79,12.87,37.01,16.36,36.52,4.19-.59,4.19-25.53,9.34-25.68,2.8,0,5.96,31.2,12.49,18.9,3.7-11.39,5.24-37.51-20.59-48.56-31.19-9.03-47.89,5.24-55.93,16.45-8.81,12.41-21.74,51.96,10.67,73.98,5.45,2.04,14.22,4.15,17.87,3.83,20.29-2.45,26.38-4.22,42.44-24.84Z"/><g><path class="i" d="M71.26,106.56c-15.65,0-29.29-9.78-35.23-20.68-10.95-23.1-5.43-40.53,1.32-51.75,10.68-17.77,27.92-26.3,41.35-26.3,18.02,0,32.32,6.11,38.91,18.1,7.74,14.09,4.73,32.94,1.02,38.67-.78,1.21-1.58,1.77-2.37,1.72h-.15l-.13-.1c-3.83-2.64-5.65-11.42-7.12-18.48-.83-4.01-2.62-8.82-3.56-9.05-.05-.01-.17,.03-.37,.24-.04,8.23-4.11,32.21-8.14,33.19-.86,.21-1.65-.37-2.35-1.72l-.05-.12c-8.42-31.79-11.04-39.08-13.34-39.5-.78-.14-1.39,.61-2.1,1.61l-.1,.14c-1.03,2.72-1.43,6.42-2.61,10.69-3.03,10.98-4.54,15.8-6.27,15.8h0c-.98,0-1.34-1.33-1.47-1.82-.33-1.21-.65-2.53-.99-3.89-1.61-6.55-5.01-17.94-9.01-19.59-9.71,3.93-7.99,29.62-7.98,29.84l-1.15,.02c-.02-.97-1.74-27.04,8.93-31.02l.2-.07,.2,.07c4.72,1.67,8.15,13.19,9.94,20.47,.33,1.35,.66,2.66,.98,3.86,.23,.85,.43,.99,.43,.99,1.08-.45,3.49-9.19,5.09-14.97,1.25-4.53,1.62-8.1,2.67-10.86l.07-.13,.14-.2c.67-.94,1.67-2.35,3.24-2.07,2.47,.45,4.95,5.22,14.23,40.28,.46,.87,.83,1.13,1.03,1.08,2.64-.64,7.26-21.41,7.26-32.29v-.2l.13-.16c.53-.66,1.09-.92,1.67-.78,1.57,.38,3.09,3.56,4.42,9.93,1.4,6.75,3.13,15.12,6.48,17.65,.26-.07,.68-.41,1.19-1.19,3.59-5.54,6.46-23.79-1.06-37.49-6.38-11.62-19.81-17.51-37.21-17.51-.22,0-.44,0-.66,0-12.84,.59-29.92,8.32-40.39,25.74-6.6,10.98-11.99,28.02-1.28,50.63,5.76,10.58,19.11,20.14,34.52,20.05,18.05-.11,34.14-8.91,42.12-24.01l.47,.25c-10.26,16.06-24.1,24.8-42.59,24.91-.11,0-.22,0-.33,0Z"/><path class="i" d="M73.24,105.17c-9.53-.05-18.77-3.64-26.04-9.75-3.2-2.69-6.03-5.86-8.21-9.43-2.68-4.39-4.37-9.69-5.55-14.67-2.01-8.49-1.97-17.34,.48-25.73,2.17-7.42,6.08-14.31,11.06-20.2s11.76-11.17,19.35-13.88c7.71-2.75,15.84-2.73,23.85-1.38s16.16,4.45,22.12,10.29,9.16,14.75,9.85,23.32c.34,4.18,.15,8.42-.55,12.55-.5,2.96-1.21,6.12-2.7,8.76-.16,.28-.34,.54-.52,.81-.87,1.31,.65-2.37,1.87-.91-.07-.09-.09,0-.06,.03-.52-.56-1.14-.96-1.62-1.58-1.22-1.58-2-3.48-2.65-5.35-1.54-4.43-2.18-9.06-3.37-13.57-.54-2.05-1.17-4.22-2.23-6.07-.23-.39-.53-.97-1.02-1.09-1.12-.27-2.96,1.23-3.69,1.85-.81,.69-.79,1.03-.83,1.99-.02,.63-.06,1.27-.11,1.9-.12,1.57-.28,3.13-.48,4.69-.85,6.82-2,13.82-4.29,20.32-.38,1.09-.79,2.2-1.37,3.2-.11,.2-.24,.39-.37,.58-.05,.08-.12,.14-.16,.22-.15,.25-.14,.02-.02,.03,.02,0-.59,.47,.14-.11,.51-.41,1.95-1.31,2.06-1.16l.09-.06-.25-.06c-.25-.22-.55-.33-.78-.6-.76-.88-.91-1.94-1.2-3.02-.36-1.35-.72-2.7-1.08-4.05-.66-2.48-1.33-4.96-2.01-7.43-1.75-6.36-3.47-12.76-5.66-18.99-.54-1.54-1.11-3.09-1.84-4.55-.38-.75-.8-1.6-1.46-2.16-.23-.19-.5-.38-.79-.47-.45-.13-.96-.02-1.4,.13-1.46,.47-2.89,1.44-3.93,2.56-1.48,1.6-1.83,3.62-2.27,5.69-.57,2.66-1.15,5.29-1.87,7.91-1.07,3.87-2.05,7.85-3.61,11.56-.19,.46-.39,.92-.64,1.35-.09,.16-.22,.3-.3,.45,.01-.02-.15,.19-.15,.19-.11-.1,2.46-1.49,2.55-1.58,.31-.34,.58,.22-.04-.19-.36-.24-.55-.61-.7-1-.4-1-.59-2.12-.85-3.16-1.01-4.06-2.08-8.1-3.57-12.01-1.1-2.9-2.5-6.93-5.29-8.67-1.42-.89-3.63,.81-4.82,1.63s-2.34,1.87-3.23,3.07c-1.67,2.23-2.63,4.95-3.29,7.62-1.34,5.43-1.62,11.14-1.52,16.72,.02,1.05,.07,2.1,.11,3.15l4.11-2.68c-.22,0-.92,.14-1.09,.02,.12,.09,.12,0,.08-.13-.08-.29-.03-.68-.04-.98-.05-1.3-.07-2.59-.06-3.89,.03-3.98,.29-7.97,.99-11.89s1.71-8.03,4.29-10.98c.18-.2,.56-.57,.61-.62,.12-.11-.03,.02,.03-.03,.22-.18-.12,.07-.14,.09,.29-.16,.04-.1-.06,.03-.22,.26-.08-.07,.18-.07-.24,0-.63,.15-.58,.22,.12,.21,.98,.51,1.22,.7,1.89,1.47,3.09,3.81,4.07,5.94,1.38,3,2.41,6.15,3.32,9.32,.44,1.54,.84,3.1,1.23,4.65,.25,1.01,.5,2.02,.76,3.03,.12,.47,.21,1.26,.6,1.6s1.53-.3,1.86-.47c1.17-.63,2.28-1.38,2.93-2.56,.5-.92,.85-1.91,1.19-2.89,1.06-3.06,1.93-6.18,2.79-9.3,.96-3.44,1.64-6.91,2.48-10.38,.33-1.35,.69-2.32,1.28-3.3,.04-.07,.21-.2,.23-.29l-.9,.51c-1,.35-1.23,.52-.7,.53,.01,0,.23,.02,.3,.04,.08,.02,.16,.05,.24,.07,.3,.09,.17,.05,.35,.17s.33,.26,.49,.41c.44,.44,.78,.98,1.08,1.51,1.21,2.1,2.02,4.44,2.81,6.72,1.55,4.46,2.87,9,4.17,13.54,.98,3.42,1.92,6.85,2.85,10.29,.54,2.01,1.08,4.01,1.61,6.02,.4,1.49,.78,3.03,2.55,2.37,4.34-1.61,5.47-5.87,6.59-9.91,1.56-5.62,2.63-11.42,3.3-17.22,.16-1.38,.29-2.76,.38-4.15,.04-.61,.07-1.23,.09-1.84,.01-.31,.02-.63,.02-.94,0-.12,.03-.27,0-.39-.06-.31,0-.07-.08-.16,.08,.1-2.31,1.24-2.19,1.41,.03,.04,.14,.03,.18,.06,.09,.09,.27,.17,.37,.25,.32,.26,.58,.61,.81,.95,.68,1.02,1.12,2.2,1.5,3.36,2.18,6.56,2.33,13.87,5.64,20.06,.57,1.06,1.25,2.06,2.19,2.81,.34,.27,1-.08,1.32-.21,3.94-1.58,5.45-5.38,6.43-9.19,1.1-4.26,1.48-8.72,1.35-13.11-.27-9.68-3.32-19.63-10.65-26.3-6.89-6.27-16.26-9.03-25.38-9.81-4.47-.38-8.88-.34-13.29,.58s-8.53,2.41-12.52,4.34c-16.57,8.02-29.93,23.97-32.37,42.54-.63,4.83-.5,9.76,.28,14.57,.95,5.8,2.75,11.88,5.56,17.07,4.58,8.47,13.22,14.85,22.24,17.87,9.77,3.26,20.76,2.3,30.36-1.12s18.31-9.33,24.39-17.43c1.42-1.89,2.66-3.89,3.77-5.97l-4.12,2.51,.47,.25-.02-.52c-3.48,5.42-7.6,10.46-12.69,14.45-4.43,3.47-9.64,5.79-15.13,7.01-3.65,.81-7.39,1.19-11.12,1.2-1,0-2.05,.69-2.84,1.25-.15,.1-1.74,1.52-1.12,1.52,14.8-.03,28.72-6.19,38.91-16.91,2.99-3.15,5.63-6.6,7.98-10.25,.15-.24,.24-.38-.02-.52l-.47-.25c-.49-.26-1.92,.67-2.28,.89-.68,.41-1.46,.9-1.84,1.62-4.02,7.53-10.3,13.82-18.12,17.34-8.5,3.83-18.68,5.29-27.84,3.36s-17.76-7.27-23.52-14.74c-3.13-4.06-5.04-8.85-6.53-13.73s-2.38-9.89-2.44-14.97c-.19-16.69,8.92-33.47,22.91-42.56,6.07-3.94,13.47-6.59,20.75-6.84,9.01-.32,18.88,1.45,26.68,6.14s12.34,11.73,14.42,20.17,1.96,17.23-.81,25.1c-.23,.66-.49,1.32-.79,1.95-.12,.26-.25,.52-.4,.77-.67,1.16-1.28,.66,1.41-.42l1.32-.21c-2.17-1.72-3.17-4.7-3.97-7.24-1.08-3.41-1.78-6.92-2.51-10.41-.61-2.9-1.21-6.38-3.02-8.82-.41-.56-.98-1.11-1.7-1.21-1.82-.27-4.29,1.59-5.36,2.9-.68,.82-.42,2.02-.47,3.05-.07,1.35-.18,2.7-.32,4.04-.31,3.01-.77,6.01-1.31,8.99-.91,4.96-1.89,10.23-3.99,14.85-.13,.29-.27,.6-.43,.87-.06,.1-.14,.21-.21,.32-.03,.05-.08,.09-.1,.14,0-.02,.05-.02,.04-.04,.24,.2,3-1.87,3.07-1.73-.04-.09-.2-.17-.26-.26-.28-.48-.47-.83-.62-1.39-.29-1.08-.58-2.16-.86-3.24-.99-3.69-1.99-7.37-3.02-11.04-1.41-5.04-2.85-10.08-4.52-15.05-.85-2.53-1.71-5.11-2.96-7.47-.53-1-1.18-2.14-2.25-2.64-1.55-.73-3.43,.36-4.72,1.18s-2.44,1.86-3.22,3.15c-.69,1.12-.92,2.62-1.2,3.88-1.48,6.6-3.01,13.26-5.36,19.62-.19,.52-.39,1.04-.62,1.54-.61,1.31-1.04,.66,1.63-.77l1.86-.47c-.3-.27-.39-.83-.49-1.19-.28-.99-.51-1.99-.76-2.99-.37-1.48-.74-2.96-1.15-4.43-.86-3.07-1.83-6.13-3.09-9.06-1.02-2.36-2.24-4.94-4.22-6.65-.58-.5-1.48-1.21-2.29-1.14-1.16,.09-2.57,1.02-3.53,1.6-7.94,4.79-9.11,15.22-9.46,23.66-.12,2.84-.03,5.67,.04,8.51l.16,.09,1.15-.02c.91-.02,1.83-.58,2.56-1.07,.5-.33,1.58-.92,1.55-1.62-.3-7.67-.3-15.99,2.58-23.22,.47-1.17,1.03-2.31,1.78-3.33,.32-.43,.64-.74,.99-1.12-.03,.03-.14,.08,.03-.02-.15,.08-.34,.2-.49,.29,.4-.27-.34,.14,.15-.06l-1.16,.3c1.4,.62,2.37,2.14,3.12,3.41,1.1,1.87,1.94,3.89,2.69,5.92,1.6,4.33,2.66,8.79,3.82,13.24,.4,1.55,.93,3.17,2.83,2.57,1.59-.5,3.28-1.61,4.26-2.99,1.85-2.61,2.6-6.2,3.48-9.22,.92-3.17,1.85-6.34,2.55-9.57,.33-1.52,.62-3.06,.99-4.57,.15-.63,.32-1.25,.52-1.86-.02,.06,.09-.37,.13-.44,.48-.93,1.49-1.02-.68,.07l-1.42,.55c.64-.15,1,.32,1.43,.89,.68,.9,1.15,1.98,1.58,3.01,1.94,4.6,3.27,9.48,4.65,14.27,1.21,4.22,2.38,8.46,3.52,12.71,.72,2.67,1.42,5.34,2.14,8.01,.46,1.71,1.76,2.83,3.53,2.24,5.81-1.94,7.12-8.83,8.35-14.05,1.63-6.96,3-14.31,3.06-21.48l-.8,.89,.24-.2-2.64,1.5c-.7,.2-.43,.11-.08,.6,.22,.31,.38,.66,.55,.99,.55,1.12,.96,2.31,1.34,3.5,.76,2.4,1.22,4.87,1.76,7.33,.96,4.43,1.92,9.45,4.59,13.22,.45,.64,.98,1.26,1.62,1.73s1.22,.36,1.98,.11c2.41-.8,4.41-2.56,5.59-4.77,1.57-2.93,2.32-6.35,2.81-9.61,1.38-9.21,.46-19.25-3.82-27.62-3.87-7.55-10.78-12.76-18.63-15.67-4.5-1.67-9.25-2.62-14.03-3.07-4.33-.41-8.73-.52-13.04,.21-8.86,1.5-17.17,5.78-24.23,11.23-13.76,10.63-23.12,27.35-22.57,44.96,.16,5.2,1.14,10.36,2.72,15.31s3.67,9.85,7.01,13.98c6.03,7.47,14.86,12.84,24.27,14.73,2.49,.5,5.02,.75,7.57,.76,1,0,2.05-.7,2.84-1.25,.15-.1,1.74-1.52,1.12-1.52Z"/></g><g><ellipse class="i" cx="91.75" cy="21.87" rx="3.85" ry="3.67"/><path class="i" d="M94.12,21.97c0,.17-.01,.34-.04,.52-.01,.08-.03,.17-.05,.25-.01,.06-.09,.26-.01,.06-.06,.16-.11,.31-.19,.46-.03,.06-.06,.12-.09,.18-.07,.12-.07,.11,.01-.02-.03,.04-.06,.08-.09,.12-.09,.12-.19,.23-.29,.34-.21,.25,.22-.16-.04,.04-.05,.04-.1,.09-.16,.13-.05,.04-.18,.17-.25,.17,.01,0,.31-.16,.06-.04-.08,.04-.15,.08-.23,.11-.05,.02-.09,.04-.14,.06-.16,.06-.13,.05,.09-.03,0,.04-.47,.14-.51,.13,.01,0,.38-.04,.08-.02-.09,0-.18,.02-.27,.02-.27,.01-.06,.07,0,0,0,.01-.18-.01-.22-.02-.11-.01-.21-.03-.32-.05-.27-.04,.21,.08-.07-.02-.16-.06-.32-.11-.48-.18-.21-.09-.03-.01,0,.01-.09-.05-.18-.1-.26-.16-.13-.08-.24-.18-.36-.27-.05-.03-.21-.19-.05-.03-.07-.07-.14-.14-.2-.22-.11-.13-.21-.26-.29-.4-.04-.07-.08-.14-.13-.21-.09-.16,.09,.24-.03-.05-.06-.16-.12-.31-.16-.47-.02-.06-.03-.13-.05-.2,0-.04-.06-.36-.05-.26,.02,.15,0-.18,0-.17,0-.07,0-.14,0-.21,0-.17,.03-.34,.07-.51,0-.04,.11-.34,.02-.1,.02-.06,.04-.13,.07-.19,.07-.19,.16-.36,.26-.53-.14,.24,.09-.11,.14-.18,.05-.06,.11-.12,.16-.19,.2-.23-.16,.09,0,0,.12-.08,.24-.19,.35-.28,.27-.21-.28,.13,.02-.02,.09-.04,.18-.09,.27-.14,0,0,.16-.09,.19-.08l-.18,.07c.07-.02,.13-.04,.2-.06,.07-.02,.14-.03,.2-.05,.34-.09-.34,.01,.02,0,.07,0,.14-.01,.22-.02,.01,0,.37,0,.14,0s.12,.01,.14,.01c.11,.01,.21,.03,.32,.05,.34,.05-.25-.1,.07,.02,.1,.03,.2,.06,.29,.1,.06,.02,.13,.05,.19,.08,.13,.06,.12,.06,0-.01,.04,.02,.09,.05,.13,.08,.15,.1,.31,.2,.45,.32,.03,.02,.27,.24,.08,.06,.07,.07,.14,.14,.2,.22,.12,.14,.22,.29,.32,.44,.04,.07,.08,.14,.12,.21-.11-.2,.03,.08,.04,.1,.07,.19,.13,.38,.17,.58,.01,.07,.02,.13,.04,.2,.01,.13,.02,.14,.01,.02,0,.07,0,.14,0,.21,.01,.71,.69,1.05,1.35,.99,.57-.06,1.6-.46,1.59-1.19-.03-2.01-1.31-3.74-3.23-4.37-2.18-.72-4.7-.08-6.23,1.64-1.33,1.49-1.54,3.7-.46,5.39,1.19,1.86,3.56,2.49,5.63,2.07,2.24-.45,4.26-2.36,4.29-4.73,.01-.71-.71-1.05-1.35-.99-.59,.06-1.58,.46-1.59,1.19Z"/></g><text class="h" transform="translate(29.82 139.6)"><tspan class="l" x="0" y="0">M</tspan><tspan class="f" x="20.77" y="0">o</tspan><tspan class="j" x="37.16" y="0">v</tspan><tspan class="g" x="53.41" y="0">w</tspan><tspan x="77.08" y="0">e</tspan></text></g></g></svg>