<?xml version="1.0" encoding="utf-8"?>
<!-- Generator: Adobe Illustrator 25.3.1, SVG Export Plug-In . SVG Version: 6.00 Build 0)  -->
<svg version="1.1" xmlns="http://www.w3.org/2000/svg" xmlns:xlink="http://www.w3.org/1999/xlink" x="0px" y="0px"
	 viewBox="0 0 500 500" style="enable-background:new 0 0 500 500;" xml:space="preserve">
<style type="text/css">
	.st0{display:none;}
	.st1{display:inline;fill:url(#SVGID_1_);}
	.st2{display:inline;fill:url(#SVGID_2_);}
	.st3{display:inline;}
	.st4{fill:#231815;}
	.st5{display:inline;fill:url(#SVGID_3_);}
	.st6{display:inline;fill:url(#SVGID_4_);}
	.st7{display:inline;fill:url(#SVGID_5_);}
	.st8{display:inline;fill:url(#SVGID_6_);}
	.st9{fill:none;stroke:#231815;stroke-miterlimit:10;}
	.st10{fill:#1F2013;}
	.st11{fill:none;}
	.st12{fill:#EDE441;stroke:#040000;stroke-miterlimit:10;}
	.st13{fill:url(#SVGID_7_);}
	.st14{fill:url(#SVGID_8_);}
	.st15{fill:url(#SVGID_9_);}
	.st16{fill:url(#SVGID_10_);}
	.st17{fill:url(#SVGID_11_);}
	.st18{fill:url(#SVGID_12_);}
	.st19{fill:url(#SVGID_13_);}
	.st20{fill:url(#SVGID_14_);}
	.st21{fill:url(#SVGID_15_);}
	.st22{fill:url(#SVGID_16_);}
	.st23{fill:url(#SVGID_17_);}
	.st24{fill:url(#SVGID_18_);}
	.st25{fill:url(#SVGID_19_);}
	.st26{fill:url(#SVGID_20_);}
	.st27{fill:url(#SVGID_21_);}
	.st28{fill:url(#SVGID_22_);}
	.st29{fill:url(#SVGID_23_);}
	.st30{fill:url(#SVGID_24_);}
	.st31{fill:url(#SVGID_25_);}
	.st32{fill:url(#SVGID_26_);}
	.st33{fill:url(#SVGID_27_);}
	.st34{fill:url(#SVGID_28_);}
	.st35{fill:url(#SVGID_29_);}
	.st36{fill:url(#SVGID_30_);}
	.st37{fill:url(#SVGID_31_);}
	.st38{fill:url(#SVGID_32_);}
	.st39{fill:url(#SVGID_33_);}
	.st40{fill:url(#SVGID_34_);}
	.st41{fill:url(#SVGID_35_);}
	.st42{fill:url(#SVGID_36_);}
</style>
<g id="圖層_4" class="st0">
</g>
<g id="圖層_2">
</g>
<g id="圖層_3">
</g>
<g id="圖層_7">
</g>
<g id="圖層_5">
</g>
<g id="圖層_6">
	<g>
		<linearGradient id="SVGID_1_" gradientUnits="userSpaceOnUse" x1="214.0412" y1="264.1754" x2="182.0742" y2="317.9542">
			<stop  offset="0" style="stop-color:#F6BB42"/>
			<stop  offset="1" style="stop-color:#FAED00"/>
		</linearGradient>
		<path style="fill:url(#SVGID_1_);" d="M174.87,233.35c28.82,57.39,54.02,102.56,54.02,102.56"/>
		<linearGradient id="SVGID_2_" gradientUnits="userSpaceOnUse" x1="362.7235" y1="76.7129" x2="94.0292" y2="528.7429">
			<stop  offset="0" style="stop-color:#F6BB42"/>
			<stop  offset="1" style="stop-color:#FAED00"/>
		</linearGradient>
		<path style="fill:url(#SVGID_2_);" d="M473.14,288.2c18.42-56.77,35.34-219.54-102.6-265.33
			C224.38-30.94,131.92,51.45,91.83,107.33c-67.99,69.43-108.34,258.93,53.16,368.66c27.18,10.17,70.88,20.66,89.02,19.06
			c117.37-17,170.18-50.24,211.47-123.78"/>
		<g>
			<g>
				<path class="st4" d="M234.02,496.65c-78,0.01-145.97-48.72-175.55-103.06C3.92,278.5,31.43,191.65,65.04,135.75
					C118.24,47.22,204.14,4.7,271.07,4.71c89.79,0.02,161.07,30.45,193.9,90.21c38.57,70.21,23.59,189.17,5.08,217.74
					c-3.9,6.02-7.34,11.19-11.29,10.95l-0.77-0.06l-0.63-0.44c-8.63-11.9-12.58-17.48-21.81-45.13
					c-5.87-17.6-21.7-29.85-26.37-30.98c-0.24-0.07-0.86,0.16-1.85,1.19c-0.19,41.02-26,88.74-46.08,93.65
					c-4.31,1.03-8.22-1.84-11.72-8.58l-0.23-0.59c-35.25-150.69-59.79-124.87-66.47-121.7c-3.57,1.69-6.86,3.7-10.45,8l-0.5,0.7
					c-6.37,14.76-7.14,32-13.01,53.25c-15.11,54.72-22.64,78.72-31.26,78.72c0,0-0.01,0-0.01,0c-4.87-0.01-6.66-6.61-7.33-9.09
					c-1.64-6.05-3.26-12.6-4.93-19.38c-8.05-32.62-32.08-100.97-44.91-97.61c-43.8,20.06-39.75,120.5-39.77,119.5l-5.74,0.11
					c-0.1-4.82-2.73-118.22,44.5-125.37l1.18-0.09l0.79,0.07c23.52,8.3,40.59,65.74,49.54,102.02c1.66,6.74,3.27,13.25,4.89,19.26
					c1.14,4.22,2.15,4.93,2.16,4.94c5.38-2.22,17.4-45.77,25.36-74.59c6.23-22.56,8.06-41.36,13.31-55.11l1.36-1.66l0.7-0.98
					c3.33-4.67,7.45-7.03,12.72-9.44c2.98-1.37,45.85-28.15,73.35,126.7c2.29,4.32,4.14,5.61,5.12,5.37
					c13.14-3.21,41.7-34.95,41.7-89.15v-1.02l0.65-0.79c2.66-3.27,5.45-4.57,8.31-3.88c7.82,1.91,18.74,5.21,30.63,35.4
					c11.35,28.8,12.02,31.5,18.13,38.64c1.32-0.35,3.4-2.03,5.92-5.91c17.87-27.6,32.2-143.59-5.3-211.86
					c-31.8-57.9-98.71-87.25-185.41-87.25c-1.1,0-2.19,0.01-3.3,0.01C207.24,13.38,122.12,51.91,69.96,138.7
					c-32.88,54.7-59.76,139.63-6.37,252.28c28.72,52.73,95.24,100.35,172.02,99.91c89.94-0.56,156.39-48.43,209.87-119.64l2.36,1.25
					c-51.12,80.01-120.11,123.56-212.2,124.13C235.11,496.65,234.56,496.65,234.02,496.65z"/>
				<g>
					<path class="st4" d="M234.43,494.92c-44.54-0.09-88.01-16.32-122.99-43.65c-15.83-12.36-30-26.95-41.41-43.49
						c-2.73-3.95-5.29-8.02-7.67-12.19c-3.07-5.38-5.46-11.17-7.88-16.86c-5.15-12.11-9.63-24.51-13.31-37.15
						c-11.73-40.37-14.73-83.07-6.13-124.35c7.02-33.72,21.4-65.46,40.56-93.99c23.59-35.11,54.74-65.25,91.4-86.48
						c30.06-17.4,64.43-29.34,99.39-30.27c21.63-0.57,43.59,1.23,64.87,5.12c19.76,3.61,39.21,9.25,57.47,17.67
						c33.13,15.27,61.43,40.06,77.41,73.21c16.8,34.85,21.14,75.38,20.4,113.64c-0.34,17.79-1.95,35.62-5.11,53.14
						c-2.26,12.52-5.08,25.46-10.48,37.05c-0.89,1.92-1.88,3.79-3.01,5.58c-1.48,2.35-2.99,4.73-4.77,6.88
						c-1.27,1.54-2.65,3.21-4.77,3.04c0.53,0.18,1.06,0.37,1.6,0.55c-2.17-1.51-3.82-4.91-5.3-7.1c-1.69-2.51-3.28-5.09-4.72-7.76
						c-4.21-7.81-7.26-16.23-10.15-24.6c-1.81-5.24-3.48-10.41-6.28-15.23c-2.39-4.11-5.3-7.92-8.53-11.4
						c-2.57-2.77-5.38-5.35-8.46-7.55c-1.85-1.32-4.05-2.93-6.33-3.39c-1.76-0.35-3.69,0.54-4.81,1.92
						c-0.7,0.86-0.54,1.74-0.56,2.79c-0.03,1.59-0.1,3.18-0.21,4.77c-0.37,5.33-1.12,10.64-2.18,15.88
						c-2.12,10.55-5.44,20.92-9.83,30.75c-3.88,8.69-8.56,17.12-14.41,24.64c-4.05,5.2-9.08,10.77-15.29,13.36
						c-10.64,4.44-12.89-14.64-14.47-21c-2.77-11.19-5.72-22.33-8.96-33.38c-4.53-15.42-9.53-30.8-16.04-45.51
						c-3.73-8.43-7.95-16.95-13.86-24.09c-3.22-3.9-7.09-7.56-12.01-9.13c-5.98-1.9-10.81,0.48-15.95,3.22
						c-3.2,1.7-6.19,3.38-8.82,5.92c-1.46,1.42-2.87,2.86-3.65,4.74c-1.01,2.42-1.87,4.89-2.63,7.4
						c-3.21,10.64-4.7,21.72-7.03,32.57c-2.66,12.37-6.33,24.53-9.81,36.69c-2.59,9.03-5.23,18.05-8.2,26.97
						c-2.01,6.03-4.1,12.11-6.94,17.81c-0.93,1.86-1.94,3.68-3.17,5.36c-0.73,1-1.91,2.16-2.58,2.57c-0.51,0.31-0.2,0.12-0.31,0.17
						c-0.58,0.27-0.11,0.07-0.23,0.1c-0.62,0.13-0.08,0.06-0.22,0.05c-0.87-0.11-1.44-0.39-2.1-1.02c-2.73-2.61-3.4-7.46-4.3-10.92
						c-2.34-8.98-4.41-18.02-6.97-26.94c-4.75-16.6-10.33-33.01-16.85-49c-2.98-7.29-6.16-14.53-9.9-21.46
						c-2.56-4.74-5.38-9.69-9.28-13.48c-3.34-3.25-6.98-4.25-11.22-2.06c-5.46,2.81-10.17,6.9-14.1,11.58
						c-8.6,10.26-13.68,23.15-17.21,35.92c-6.14,22.2-8.18,45.75-8,68.74c0.01,1.38-0.02,2.78,0.08,4.15
						c0.16,2.14,4.63,1.59,4.92-0.29c0.01-0.05,0.02-0.42,0.02-0.47c-0.01-0.89-1.36-1.37-2.06-1.36c-1.91,0.04-3.83,0.07-5.74,0.11
						c0.69,0.45,1.38,0.91,2.06,1.36c-0.2-9.88,0.1-19.79,0.77-29.65c1.22-18.18,3.59-36.54,8.94-54
						c4.34-14.2,11.63-31.83,26.43-37.94c1.56-0.64,3.18-1.16,4.84-1.49c0.66-0.13,1.94-0.24,2.16-0.28
						c-0.37,0.08,0.17,0.03,0.24,0.06c-0.31-0.09-0.87-0.4-0.21,0.03c0.43,0.28,1.01,0.43,1.47,0.65c3.92,1.92,7.2,5.03,10.02,8.32
						c7.68,8.97,12.89,20.12,17.39,30.93c5.28,12.68,9.49,25.79,13.26,38.98c1.73,6.06,3.35,12.15,4.89,18.26
						c2.01,7.98,3.64,16.14,6.13,23.98c0.45,1.42,0.98,3.55,2.26,4.51c1.05,0.79,2.35,0.62,3.47,0.09c2.22-1.03,3.49-3.97,4.47-6.02
						c1.97-4.15,3.54-8.5,5.04-12.83c4.26-12.29,7.84-24.81,11.37-37.32c4.06-14.36,8.01-28.7,11.02-43.32
						c1.43-6.95,2.75-13.94,4.5-20.82c0.75-2.97,1.59-5.93,2.61-8.82c0.6-1.72,1.85-3.13,2.97-4.57c3.04-3.92,7.29-6.07,11.67-8.18
						c0.27-0.13,1.28-0.63,0.85-0.43c-0.48,0.22,0.37-0.16,0.58-0.25c0.33-0.13,0.67-0.26,1-0.38c0.38-0.14,0.77-0.25,1.16-0.37
						c0.21-0.07,0.43-0.12,0.64-0.17c-0.52,0.14-0.34,0.07,0.13-0.02c0.49-0.09,0.97-0.19,1.47-0.26c0.44-0.06,1.87-0.16,1.06-0.12
						c1.21-0.05,2.4-0.01,3.6,0.13c-0.44-0.05,0.03,0,0.43,0.07c0.36,0.07,0.72,0.13,1.07,0.21c0.7,0.16,1.4,0.35,2.08,0.57
						c0.19,0.06,1.03,0.36,1.8,0.7c0.77,0.34,1.53,0.71,2.27,1.11c8.57,4.68,15.12,13.89,20.03,22.5
						c10.19,17.85,16.35,37.96,21.45,57.77c1.85,7.2,3.53,14.44,5.08,21.71c0.86,4.02,1.67,8.05,2.45,12.09
						c0.41,2.12,0.81,4.24,1.2,6.37c0.37,2,0.47,4.15,1.46,5.94c1.13,2.06,2.84,4.68,5.27,5.33c1.48,0.4,3-0.1,4.38-0.63
						c2.8-1.09,5.32-2.74,7.69-4.58c15.8-12.23,25.11-32.81,29.8-51.7c1.72-6.94,2.86-14.02,3.47-21.14
						c0.32-3.77,0.5-7.55,0.54-11.34c0.01-0.63,0.03-1.26,0.01-1.89c-0.01-0.15-0.04-0.53,0-0.7c-0.03,0.13-0.31,0.8,0,0.49
						c1.15-1.15,2.11-2.66,3.75-3.2c2.23-0.73,5.91,1.02,7.93,1.97c3.19,1.51,5.93,3.74,8.34,6.31
						c9.43,10.07,13.95,24.06,18.89,36.63c2.96,7.55,5.56,15.65,9.84,22.6c1.31,2.13,2.88,4.07,4.5,5.97
						c0.63,0.74,2.1,0.61,2.91,0.35c3.88-1.24,6.52-5.46,8.42-8.82c1.43-2.52,2.6-5.19,3.68-7.88c2.78-6.97,4.77-14.25,6.43-21.56
						c4.52-19.95,6.56-40.48,7.09-60.91c0.61-23.6-0.98-47.4-5.81-70.54c-4.56-21.84-12.16-43.18-24.71-61.76
						c-11.91-17.63-27.62-32.3-45.59-43.62c-19.54-12.31-41.48-20.52-63.92-25.69c-12.5-2.88-25.21-4.81-37.97-6.01
						c-13.02-1.23-26.39-2.11-39.46-1.31c-19.65,1.2-39.09,5.46-57.68,11.85c-21.32,7.32-41.67,17.55-60.38,30.12
						c-20.71,13.91-39.46,30.68-55.61,49.7c-15.02,17.69-27.9,37.21-38.17,58.02c-8.9,18.03-15.79,37.07-20.14,56.71
						c-5.04,22.75-6.63,46.21-4.93,69.44c2.06,28.07,8.91,55.59,18.98,81.83c5.07,13.21,10.63,26.15,18.54,37.93
						c6.52,9.72,14.05,18.77,22.27,27.1c17.65,17.87,38.68,32.49,61.51,42.95c24.32,11.13,50.83,17.51,77.59,18.07
						c25.23,0.52,50.69-3.1,74.76-10.7c22.8-7.2,44.35-18.11,63.97-31.75c20.33-14.14,38.61-31.03,55.09-49.48
						c8.28-9.27,16.12-18.94,23.59-28.87c-1.28,0.31-2.55,0.62-3.83,0.93c0.79,0.42,1.58,0.83,2.36,1.25
						c-0.23-0.66-0.47-1.33-0.7-1.99c-18.42,28.77-40.71,55.27-67.9,76.15c-25.39,19.5-54.81,33.44-86.04,40.55
						C272.89,492.95,253.66,494.91,234.43,494.92c-2.7,0-4.13,3.47-0.82,3.47c34.17-0.01,68.42-6.05,99.8-19.81
						c30.39-13.32,57.32-33.36,79.9-57.6c13.75-14.77,25.93-30.94,36.8-47.93c0.51-0.79,0.04-1.6-0.7-1.99
						c-0.79-0.42-1.58-0.83-2.36-1.25c-1.25-0.66-3.01-0.15-3.83,0.93c-14.96,19.89-31.45,38.68-49.99,55.31
						c-17.53,15.73-36.91,29.43-58.03,39.92c-21.28,10.57-44.21,17.63-67.74,20.93c-25.95,3.64-52.38,3.01-77.85-3.41
						c-24.74-6.24-48.21-17.42-68.85-32.39c-18.88-13.7-35.65-30.57-48.41-50.15c-7.64-11.71-12.99-24.67-17.92-37.72
						c-5.15-13.64-9.38-27.63-12.51-41.87c-5.34-24.29-7.42-49.34-5.4-74.15c1.71-21.03,6.3-41.78,13.47-61.62
						c6.44-17.81,14.96-34.83,25.01-50.87c13.73-21.93,30.46-41.93,49.76-59.16c17.32-15.46,36.65-28.63,57.41-39.01
						c18.42-9.22,38.06-16.26,58.25-20.42c9.04-1.86,18.21-3.17,27.43-3.77c12.7-0.83,25.75,0.09,38.4,1.25
						c24.07,2.21,48.1,7.15,70.59,16.16c19.79,7.93,38.33,19.04,53.83,33.76c15.25,14.49,27.05,32.21,34.8,51.75
						c8.42,21.21,12.58,44.05,14.44,66.72c1.82,22.15,1.42,44.52-1.09,66.6c-1.91,16.77-4.75,33.92-10.72,49.78
						c-0.97,2.58-2.05,5.12-3.34,7.56c-1.38,2.62-3.42,7.05-6.35,7.99c0.97,0.12,1.94,0.24,2.91,0.35
						c-3.71-4.35-6.18-9.24-8.38-14.49c-5.36-12.77-9.48-26.21-16.17-38.37c-4.24-7.7-9.84-15.46-18.03-19.27
						c-2.49-1.16-5.35-2.17-8.09-2.53c-4.43-0.58-11.52,2.88-11.53,7.88c-0.05,25.31-6.42,51.78-21.97,72.19
						c-4.16,5.46-9.33,11.2-15.66,14.17c-0.13,0.06-0.78,0.34-1.2,0.48c-0.24,0.08-0.56,0.12-0.78,0.25
						c-0.04,0.02-0.31,0.05-0.32,0.09c1.14-2.97,1.61,0.93,0.97-0.27c-0.65-1.22-1.99-2.16-2.63-3.5c-1.03-2.17-1.13-5.03-1.57-7.37
						c-1.52-8.13-3.18-16.23-5.02-24.29c-5.08-22.31-11.27-44.89-21.47-65.47c-5.12-10.33-11.62-21.11-21.12-28.01
						c-5.39-3.91-11.74-6.31-18.46-5.81c-3.47,0.25-6.6,1.35-9.7,2.85c-3.97,1.92-7.89,3.88-11.02,7.05
						c-1.58,1.59-2.91,3.45-4.26,5.24c-1.48,1.96-2.04,4.78-2.73,7.12c-4.24,14.42-6.24,29.43-9.95,43.99
						c-3.44,13.5-7.34,26.91-11.3,40.26c-3.23,10.88-6.33,22.06-10.97,32.45c-0.64,1.43-1.31,2.86-2.13,4.19
						c-0.21,0.34-0.76,1.12-0.79,1.16c-0.43,0.55-0.33,0.35-0.54,0.45c1.16,0.03,2.32,0.06,3.47,0.09
						c-1.22-0.92-1.89-4.85-2.35-6.62c-1.15-4.36-2.24-8.74-3.33-13.12c-1.64-6.64-3.31-13.28-5.12-19.87
						c-3.67-13.39-7.79-26.68-12.81-39.64c-4.55-11.75-9.8-23.65-17.4-33.79c-2.89-3.85-6.17-7.56-10.14-10.32
						c-1.71-1.19-3.55-2.3-5.52-3c-1.86-0.66-3.74-0.47-5.65-0.08c-16.86,3.43-26.62,18.85-32.44,33.81
						c-6.89,17.69-9.78,36.91-11.42,55.73c-1.06,12.14-1.57,24.37-1.38,36.56c0.01,0.36,0.01,0.72,0.02,1.09
						c0.02,0.89,1.35,1.37,2.06,1.36c1.91-0.04,3.83-0.07,5.74-0.11c-0.69-0.45-1.38-0.91-2.06-1.36c0.01-0.15,0.01-0.3,0.02-0.46
						c1.64-0.1,3.28-0.19,4.92-0.29c-0.33-4.36-0.11-8.83,0-13.18c0.26-10.41,1.04-20.82,2.41-31.14
						c1.64-12.39,4.13-24.76,8.24-36.58c3.79-10.86,9.13-21.81,17.6-29.8c1.96-1.84,4.06-3.51,6.35-4.92
						c1.08-0.67,2.36-1.14,3.38-1.86c0.76-0.54,0.08,0-0.26,0.01c0.36-0.02,0.24-0.14,0.2-0.05c-0.01,0.01-0.01-0.03,0.34,0.06
						c0.75,0.2,2.14,1.19,3.12,2.13c1.5,1.44,2.76,3.11,3.94,4.82c7.62,11.04,12.7,24.02,17.49,36.46
						c5.5,14.25,10.32,28.79,14.44,43.51c2.36,8.43,4.3,16.97,6.52,25.43c1.47,5.59,3.19,13.85,10.52,13.79
						c6.96-0.06,10.67-8.29,13.04-13.64c5.95-13.42,9.84-27.81,13.89-41.89c3.07-10.68,6.28-21.36,8.84-32.17
						c2.42-10.19,3.96-20.56,6.35-30.76c1.02-4.36,2.23-8.68,3.85-12.86c1.58-4.06,5.37-6.93,9.14-8.93
						c1.18-0.63,2.36-1.19,3.51-1.86c0.39-0.22,0.77-0.45,1.17-0.66c0.21-0.11,0.42-0.22,0.63-0.33c0.38-0.2,0.88-0.4,0.25-0.13
						c0.49-0.21,0.98-0.42,1.49-0.59c0.26-0.09,0.52-0.16,0.78-0.24c0.32-0.1-0.55,0.06,0.31-0.06c0.28-0.04,0.57-0.08,0.86-0.13
						c0.96-0.16-0.1-0.05,0.43-0.04c0.31,0,0.62,0.01,0.94,0.01c0.16,0,0.32,0.03,0.48,0.04c0.67,0.04-0.41-0.08,0.04,0
						c0.72,0.12,1.42,0.29,2.11,0.51c-0.43-0.14,0.27,0.09,0.66,0.27c0.42,0.19,0.83,0.38,1.24,0.6c1.57,0.84,3.08,2,4.71,3.56
						c2.05,1.96,3.77,4.09,5.41,6.41c5.21,7.33,9.13,15.58,12.63,23.84c5.81,13.71,10.4,27.92,14.57,42.2
						c2.91,9.95,5.58,19.98,8.1,30.03c1.38,5.5,2.27,11.34,4.06,16.7c1.17,3.48,4.13,7.27,7.32,9.13c5.46,3.19,11.9,0.06,16.51-3.24
						c5.63-4.03,10.22-9.38,14.22-14.98c10.38-14.55,17.45-31.8,21.5-49.14c2.08-8.93,3.27-18.04,3.35-27.22
						c-0.18,0.44-0.36,0.87-0.54,1.31c1.54-1.48-0.6,0.53-1.01-0.47c0.04,0.1,0.63,0.24,0.73,0.31c0.54,0.36,1.19,0.6,1.75,0.93
						c1.68,1,3.23,2.21,4.73,3.46c3.89,3.26,7.37,7.02,10.33,11.14c7.22,10.04,9.83,22.28,14.43,33.59
						c2.97,7.28,6.56,14.13,11.06,20.58c1.8,2.59,3.53,6.57,7.07,6.68c5.85,0.18,9.53-5.46,12.39-9.75
						c7.51-11.26,11.11-24.68,13.93-37.78c4.06-18.87,6.04-38.19,6.67-57.47c0.72-21.77-0.41-43.68-4.06-65.17
						c-3.55-20.93-9.52-41.8-19.7-60.52c-19.84-36.52-54.6-61.6-93.2-75.42c-21.89-7.84-44.81-12.4-67.92-14.63
						c-21.35-2.05-43.07-2.68-64.29,0.84c-41.2,6.82-79.89,26.2-112.26,52.25C95.27,85.57,67.07,121.92,48.4,162.28
						c-17.25,37.3-25.34,78.18-22.91,119.26c1.54,25.97,7.11,51.59,15.62,76.15c2.34,6.76,4.89,13.46,7.64,20.06
						c2.73,6.57,5.45,13.29,8.98,19.47c5.34,9.36,11.61,18.18,18.55,26.42c30.53,36.28,73.89,62.13,120.48,71.17
						c12.14,2.35,24.49,3.56,36.86,3.58C236.32,498.39,237.74,494.92,234.43,494.92z"/>
				</g>
			</g>
		</g>
		<g>
			<g>
				<ellipse class="st4" cx="336.12" cy="74.67" rx="19.17" ry="18.3"/>
				<g>
					<path class="st4" d="M353.82,74.78c-0.07,7.2-4.62,13.72-11.45,16.12c-6.97,2.44-15.03,0.28-19.82-5.35
						c-4.73-5.56-5.45-13.59-1.65-19.86c3.82-6.3,11.44-9.31,18.58-7.9C347.52,59.38,353.74,66.54,353.82,74.78
						c0.01,1.51,2.95,1.06,2.93-0.23c-0.08-8.31-5.61-15.5-13.45-18.12c-8.06-2.7-17.44-0.35-23.08,6.06
						c-5.43,6.17-6.26,15.26-1.87,22.24c4.56,7.23,13.48,10.43,21.72,8.89c9.15-1.72,16.59-9.57,16.68-19.05
						C356.77,73.05,353.83,73.49,353.82,74.78z"/>
				</g>
			</g>
		</g>
	</g>
</g>
</svg>
